<svg xmlns="http://www.w3.org/2000/svg" width="27" height="27" fill="none" viewBox="0 0 27 27">
    <g clip-path="url(#clip0)">
        <path fill="#C4E3F2" d="M22.95 24.642v.108c0 .994-.806 1.8-1.8 1.8H2.25c-.994 0-1.8-.806-1.8-1.8V23.4h15.309l6.201 1.31c.33.07.673.047.99-.068z"/>
        <path fill="#E5F2F3" d="M15.759 23.4H.45V13.05c0-.994.806-1.8 1.8-1.8h1.395l-1.287 6.102-.28 1.319c-.098.467-.006.954.254 1.354.261.4.67.68 1.137.779L15.76 23.4z"/>
        <path fill="#CBE3FF" d="M26.51 11.876L24.371 22 2.358 17.352l1.287-6.102.85-4.027v-.01l1.521 1.544c.24.247.348.592.293.931l-.504 3.038c-.081.377.062.768.367 1.004s.719.276 1.064.103l2.66-1.458c.283-.153.625-.153.908 0l2.66 1.458c.345.173.759.133 1.064-.103.305-.236.448-.627.367-1.004l-.504-3.038c-.055-.339.053-.684.292-.931l.995-1.008 9.445 1.994c.467.098.876.378 1.136.778.26.4.35.888.25 1.354z"/>
        <path fill="#E6F4FF" d="M25.123 9.742L15.678 7.75l-.233.236 8.328 1.757c.468.099.876.38 1.136.78.26.4.35.887.25 1.354l-2.08 9.852 1.293.272 2.137-10.124c.1-.467.01-.954-.25-1.355-.26-.4-.669-.68-1.136-.779z"/>
        <path fill="#B0D1E1" d="M24.372 22l-.28 1.323c-.097.468-.377.877-.777 1.137s-.888.35-1.355.25l-6.201-1.31-12.29-2.596c-.467-.099-.876-.379-1.137-.779-.26-.4-.352-.887-.253-1.354l.279-1.319L24.372 22z"/>
        <path fill="#FFEB3A" d="M19.962 14.626l2.64.559c.487.103.964-.208 1.067-.694l.373-1.76c.103-.487-.208-.964-.694-1.067l-2.64-.559c-.487-.103-.964.208-1.067.694l-.373 1.76c-.103.487.208.964.694 1.067z"/>
        <path fill="#FDD834" d="M23.336 11.664l-2.642-.559c-.24-.05-.49 0-.693.14l1.985.419c.233.049.438.189.568.389.13.2.176.443.126.677l-.372 1.76c-.048.227-.182.426-.374.556l.658.138c.486.103.963-.208 1.066-.694l.372-1.761c.102-.486-.209-.963-.694-1.065z"/>
        <path fill="#FFDC00" d="M16.794 6.615l-1.116 1.134-.995 1.008c-.239.247-.347.592-.292.931l.504 3.038c.081.377-.062.768-.367 1.004s-.72.276-1.064.103l-2.66-1.458c-.283-.153-.625-.153-.909 0l-2.66 1.458c-.344.173-.758.133-1.063-.103-.306-.236-.448-.627-.367-1.004l.504-3.038c.055-.339-.053-.684-.293-.931l-1.52-1.544-.59-.598c-.275-.276-.375-.681-.261-1.054.114-.373.423-.652.805-.728l2.943-.446c.327-.053.606-.263.747-.562l1.328-2.799c.153-.35.5-.577.882-.577.383 0 .729.226.882.577l1.327 2.799c.142.299.421.509.747.562l2.943.446c.383.076.692.355.806.728.114.373.014.778-.261 1.054z"/>
        <path fill="#FEC108" d="M16.25 4.833l-2.944-.446c-.326-.053-.605-.263-.747-.562l-1.327-2.799c-.127-.291-.39-.5-.702-.558-.312-.057-.633.044-.855.27.085.084.155.181.207.288l1.327 2.799c.142.299.421.509.747.563l2.943.445c.383.076.692.355.806.728.114.373.014.778-.261 1.054l-1.116 1.134-.995 1.008c-.239.247-.347.592-.292.931l.504 3.038c.062.359-.065.724-.337.967l.256.14c.345.173.759.133 1.064-.103.305-.236.448-.627.367-1.004l-.504-3.038c-.055-.339.053-.684.292-.931l.995-1.008 1.116-1.134c.274-.276.375-.681.261-1.054-.114-.373-.423-.652-.806-.728z"/>
        <path fill="#4878BF" d="M2.25 27h18.9c1.168-.003 2.138-.9 2.232-2.065.59-.31 1.012-.866 1.152-1.517L26.95 11.97c.125-.584.012-1.193-.313-1.694-.326-.5-.837-.85-1.42-.974l-8.64-1.823.54-.546c.402-.41.539-1.012.353-1.556-.165-.521-.61-.904-1.151-.99l-2.946-.445c-.18-.03-.331-.149-.405-.315L11.64.834C11.411.327 10.906 0 10.35 0S9.289.327 9.06.834L7.732 3.63c-.074.166-.226.284-.405.315L4.38 4.39c-.54.085-.986.468-1.151.99-.186.543-.049 1.145.354 1.555l.422.428L3.28 10.8H2.25C1.008 10.802.001 11.809 0 13.05v11.7c.001 1.242 1.008 2.248 2.25 2.25zm18.9-.9H2.25c-.746 0-1.35-.604-1.35-1.35v-.9h14.814l6.152 1.3c.154.033.311.05.468.05.03 0 .057-.006.085-.007-.186.542-.696.906-1.269.908zm.903-1.83l-18.49-3.906c-.35-.073-.658-.283-.853-.583-.196-.3-.264-.665-.19-1.015l.185-.88L23.84 22.35l-.186.881c-.155.728-.871 1.193-1.6 1.038zM4.083 5.662c.06-.2.228-.349.433-.383l2.946-.445c.475-.075.88-.381 1.083-.817l1.328-2.798c.08-.192.268-.318.477-.318.209 0 .397.126.478.318l1.327 2.798c.202.436.609.742 1.083.817l2.946.445c.205.034.373.183.432.383.077.222.023.47-.141.639L14.36 8.442c-.34.35-.492.84-.41 1.32l.5 3.039c.044.23-.049.466-.239.604-.154.114-.361.127-.529.032l-2.662-1.455c-.417-.229-.923-.229-1.34 0l-2.66 1.455c-.167.094-.374.082-.53-.032-.189-.138-.282-.374-.239-.604l.499-3.039c.081-.48-.072-.97-.412-1.32L4.225 6.301c-.164-.17-.218-.417-.141-.64zm1.614 3.413c.139.143.2.344.166.54l-.501 3.038c-.102.571.134 1.149.606 1.486.435.313 1.012.348 1.482.09l2.661-1.455c.149-.082.33-.082.478 0l2.661 1.455c.47.258 1.047.223 1.482-.09.472-.337.708-.915.606-1.486l-.5-3.039c-.035-.196.026-.397.165-.54l.822-.834 9.207 1.943c.35.074.656.285.85.585.195.3.263.665.187 1.015l-2.044 9.685L2.89 17.005l1.873-8.875.933.946zM2.25 11.7h.84l-1.172 5.555v.002l-.278 1.318c-.125.584-.012 1.194.314 1.694.325.5.837.851 1.421.974l8.078 1.707H.9v-9.9c0-.746.604-1.35 1.35-1.35z"/>
        <path fill="#4878BF" d="M19.857 15.068l2.643.558c.35.075.716.006 1.016-.19.3-.195.51-.501.585-.852l.371-1.76c.074-.351.006-.717-.19-1.017-.195-.3-.501-.51-.852-.584l-2.641-.558c-.35-.074-.716-.006-1.016.19-.3.195-.51.502-.584.852l-.372 1.761c-.154.73.312 1.446 1.041 1.6h-.001zm-.161-1.414l.372-1.76c.043-.21.227-.358.44-.358.031 0 .062.003.093.01l2.641.558c.117.024.22.094.285.195.065.1.088.222.063.338l-.37 1.763c-.025.117-.095.22-.195.284-.1.066-.222.088-.339.063l-2.641-.558c-.243-.052-.399-.29-.347-.533l-.002-.002zM14.99 16.34l7.924 1.674c.243.05.482-.104.534-.348.051-.243-.105-.482-.348-.533l-7.925-1.674c-.243-.052-.482.104-.533.347-.051.243.104.482.347.534zM22.728 18.894l-3.963-.837c-.243-.052-.482.104-.534.347-.05.243.104.482.348.533l3.962.838c.031.006.063.01.094.01.23-.001.423-.175.446-.404.024-.229-.128-.439-.353-.487z"/>
    </g>
    <defs>
        <clipPath id="clip0">
            <path fill="#fff" d="M0 0H27V27H0z"/>
        </clipPath>
    </defs>
</svg>
