<svg xmlns="http://www.w3.org/2000/svg" width="19" height="24" fill="none" viewBox="0 0 19 24">
    <path fill="#fff" d="M9.127 11.738c2.669 0 4.832-2.628 4.832-5.87C13.96 2.629 13.25 0 9.127 0 5.006 0 4.295 2.628 4.295 5.869c0 3.241 2.164 5.869 4.832 5.869zM.001 20.698c0-.197-.002-.055 0 0zM18.253 20.853c.003-.054 0-.376 0 0z"/>
    <path fill="#fff" d="M18.243 20.462c-.09-5.647-.827-7.256-6.47-8.274 0 0-.794 1.012-2.646 1.012-1.851 0-2.646-1.012-2.646-1.012C.9 13.195.118 14.78.015 20.278c-.009.449-.012.473-.014.42v.594S1.346 24 9.128 24c7.782 0 9.126-2.708 9.126-2.708v-.44c-.001.033-.004-.03-.01-.39z"/>
</svg>
