<svg xmlns="http://www.w3.org/2000/svg" width="29" height="30" fill="none" viewBox="0 0 29 30">
    <g fill="#4978BF" clip-path="url(#clip0)">
        <path d="M22.089 6.399h-.767v-.837c0-1.06-.837-1.923-1.867-1.923s-1.866.862-1.866 1.923v.836h-1.915v-.836c0-1.06-.837-1.923-1.867-1.923s-1.866.862-1.866 1.923v.836h-1.915v-.836c0-1.06-.837-1.923-1.866-1.923-1.03 0-1.867.862-1.867 1.923v.836h-.98c-1.637 0-2.97 1.333-2.97 2.971v16.776c0 1.637 1.333 2.97 2.97 2.97H22.09c1.639 0 2.97-1.333 2.97-2.97V9.369c0-1.637-1.332-2.97-2.97-2.97zm-3.452-.837c0-.482.367-.874.818-.874.452 0 .818.392.818.874v3.422c0 .481-.366.874-.818.874-.45 0-.818-.393-.818-.874V5.562zm-5.647 0c0-.482.367-.874.817-.874.451 0 .818.392.818.874v3.422c0 .481-.367.874-.818.874-.45 0-.817-.393-.817-.874V5.562zm-5.649 0c0-.482.367-.874.818-.874.45 0 .818.392.818.874v3.422c0 .481-.367.874-.818.874-.45 0-.818-.393-.818-.874V5.562zm15.971 20.583c0 .675-.548 1.224-1.223 1.224H5.313c-.674 0-1.223-.55-1.223-1.224V10.768h19.222v15.377z"/>
        <path d="M8.875 13.863H5.663v2.858h3.212v-2.858zM13.162 13.863H9.95v2.858h3.212v-2.858zM17.452 13.863H14.24v2.858h3.212v-2.858zM21.74 13.863h-3.213v2.858h3.212v-2.858zM8.875 17.678H5.663v2.856h3.212v-2.856zM13.162 17.678H9.95v2.856h3.212v-2.856zM17.452 17.678H14.24v2.856h3.212v-2.856zM21.74 17.678h-3.213v2.856h3.212v-2.856zM8.875 21.492H5.663v2.856h3.212v-2.856zM13.162 21.492H9.95v2.856h3.212v-2.856zM17.452 21.492H14.24v2.856h3.212v-2.856zM21.74 21.492h-3.213v2.856h3.212v-2.856z"/>
    </g>
    <path fill="#FFC700" stroke="#86A2CB" stroke-width=".5" d="M28.75 6.47c0 3.456-2.563 6.22-5.68 6.22-3.118 0-5.682-2.764-5.682-6.22S19.952.25 23.07.25c3.118 0 5.681 2.764 5.681 6.22z"/>
    <path fill="#fff" d="M20.572 6.939c.055.06.08.146.066.229l-.248 1.568c-.053.316.072.636.323.823.232.174.54.193.791.049l1.316-.75c.057-.033.127-.033.183 0l1.317.75c.25.145.558.126.791-.048.25-.187.376-.507.323-.823l-.248-1.568c-.014-.083.01-.169.067-.23l1.044-1.105c.214-.227.287-.56.189-.862-.088-.29-.326-.504-.614-.552l-1.458-.228c-.07-.013-.13-.062-.158-.13L23.6 2.62c-.122-.282-.391-.463-.688-.463-.297 0-.566.18-.688.463l-.657 1.442c-.029.068-.088.117-.158.13l-1.457.228c-.288.048-.526.262-.614.552-.098.302-.026.635.188.862l1.046 1.105z"/>
    <defs>
        <clipPath id="clip0">
            <path fill="#fff" d="M0 0H25.476V25.476H0z" transform="translate(.963 3.64)"/>
        </clipPath>
    </defs>
</svg>
