<svg xmlns="http://www.w3.org/2000/svg" width="65" height="71" fill="none" viewBox="0 0 65 71">
    <path d="M58.468 49.084H7c1.005.043 1.994-.259 2.803-.855.809-.597 1.39-1.452 1.646-2.423 3.662-9.877-6.09-38.658 21.287-38.658S50.358 35.93 54.019 45.805c.256.972.837 1.827 1.647 2.423.809.597 1.797.899 2.802.856z"/>
    <path d="M54.016 45.806H27.269c-.685 0-1.361-.138-1.991-.405-.63-.267-1.2-.658-1.675-1.15-.476-.491-.848-1.073-1.095-1.712-.246-.638-.361-1.319-.34-2.003.378-12.2-1.567-33.156 10.367-33.386C-.225 7.32 20.715 49.086 7 49.086h51.468c-1.005.043-1.995-.26-2.804-.856-.81-.596-1.392-1.451-1.648-2.423z"/>
    <path d="M63.452 54.068c0 1.321-.526 2.589-1.46 3.523-.934.934-2.202 1.46-3.523 1.46h-37.07c-1.321 0-2.588-.526-3.523-1.46-.934-.934-1.46-2.202-1.46-3.523 0-1.322.526-2.59 1.46-3.524.934-.934 2.202-1.46 3.523-1.46h37.07c.654 0 1.302.13 1.907.38.604.25 1.154.617 1.616 1.08.463.462.83 1.012 1.08 1.616.25.605.38 1.253.38 1.908z"/>
    <path d="M42.7 59.05c0 2.644-1.05 5.179-2.919 7.048-1.869 1.869-4.404 2.919-7.047 2.919s-5.178-1.05-7.047-2.92c-1.87-1.868-2.92-4.403-2.92-7.046H42.7z"/>
    <path d="M42.218 62.124c-.51 1.567-1.399 2.983-2.589 4.123-1.19 1.14-2.642 1.967-4.23 2.41-2-.556-3.777-1.722-5.084-3.335-.231-.291-.376-.641-.417-1.01-.042-.37.022-.743.184-1.078.162-.334.415-.616.73-.813.315-.197.68-.3 1.051-.3l10.355.003z"/>
    <path d="M37.8 7.53c.01-.126.015-.253.015-.38 0-1.348-.536-2.64-1.488-3.593-.953-.952-2.245-1.488-3.593-1.488-1.347 0-2.639.536-3.592 1.488-.952.953-1.488 2.245-1.488 3.592 0 .128 0 .255.015.381"/>
    <path stroke="#fff" d="M58.468 48.06c-1.984 0-3.1-1.032-3.745-3.442-.654-2.465-.678-6.038-.7-9.824-.028-4.584-.059-9.781-1.2-14.43-.066-.262-.233-.487-.465-.626-.232-.14-.51-.181-.772-.117-.263.064-.49.23-.63.46-.142.231-.186.508-.123.771 1.083 4.415 1.113 9.482 1.14 13.954.025 3.92.047 7.62.77 10.338.253 1.05.71 2.04 1.346 2.913h-42.7c.635-.873 1.09-1.864 1.343-2.913.723-2.718.745-6.42.769-10.337.036-5.984.078-12.765 2.525-17.954 2.756-5.842 8.221-8.682 16.71-8.682 4.66 0 8.476.876 11.337 2.6 2.501 1.522 4.452 3.803 5.568 6.51.11.247.314.44.566.536.252.097.533.09.78-.018.247-.109.442-.31.541-.562.1-.25.096-.531-.01-.78-1.295-3.088-3.529-5.691-6.386-7.44-1.95-1.142-4.087-1.936-6.31-2.345-.109-1.54-.797-2.981-1.926-4.034C35.766 1.585 34.28 1 32.736 1c-1.543 0-3.03.585-4.159 1.638-1.13 1.053-1.817 2.494-1.926 4.034-2.127.395-4.174 1.139-6.058 2.201-2.823 1.649-5.066 4.132-6.418 7.107-2.642 5.6-2.684 12.62-2.722 18.815-.022 3.785-.044 7.36-.7 9.825-.64 2.41-1.76 3.44-3.745 3.44-1.593 0-3.121.633-4.248 1.76C1.633 50.947 1 52.475 1 54.07c0 1.593.633 3.122 1.76 4.249 1.127 1.126 2.655 1.76 4.248 1.76h6.487c.137.004.273-.02.402-.07.127-.049.244-.123.343-.219.098-.096.177-.21.23-.336.054-.127.082-.263.082-.4s-.028-.273-.082-.4c-.053-.126-.132-.24-.23-.336-.099-.096-.216-.17-.344-.22-.128-.05-.264-.073-.402-.069H7c-1.038-.016-2.03-.44-2.758-1.18-.73-.742-1.138-1.739-1.138-2.778 0-1.04.409-2.037 1.138-2.777.729-.74 1.72-1.165 2.758-1.181h51.468c1.04.016 2.03.44 2.76 1.18.728.741 1.137 1.739 1.137 2.778 0 1.04-.409 2.036-1.138 2.777-.729.74-1.72 1.165-2.758 1.181H17.585c-.267.009-.52.12-.704.312-.186.19-.29.447-.29.713 0 .266.104.522.29.713.185.192.437.303.703.312h4.207c.256 2.725 1.52 5.256 3.543 7.1 2.024 1.842 4.662 2.864 7.4 2.864 2.737 0 5.375-1.022 7.399-2.865 2.024-1.843 3.287-4.374 3.542-7.1h14.792c1.594 0 3.122-.633 4.25-1.76 1.126-1.126 1.759-2.654 1.759-4.248 0-1.594-.633-3.122-1.76-4.249-1.127-1.127-2.655-1.76-4.248-1.76v0zM32.734 3.091c.937.002 1.844.327 2.569.92.724.593 1.222 1.419 1.408 2.336-2.643-.3-5.31-.3-7.952 0 .185-.917.683-1.743 1.407-2.336.725-.594 1.632-.918 2.568-.92zm0 64.9c-2.193-.002-4.309-.81-5.946-2.27-1.637-1.459-2.681-3.468-2.936-5.646h17.763c-.254 2.178-1.298 4.187-2.935 5.646-1.637 1.46-3.752 2.267-5.946 2.27zM49.188 7.48c1.423.914 2.658 2.092 3.639 3.47 2.487 3.507 3.76 7.73 3.623 12.029 0 .271.107.532.3.724.192.192.453.3.724.3.272 0 .533-.108.725-.3.193-.192.3-.453.3-.724.138-4.78-1.303-9.47-4.1-13.348-1.136-1.575-2.568-2.915-4.217-3.944-.236-.123-.512-.148-.768-.071-.255.077-.47.25-.6.484-.13.233-.163.508-.093.766.07.257.238.478.468.613zM56.92 7.847c.164.108 4.038 2.708 4.038 9.25.009.266.12.518.312.703.19.186.447.29.713.29.266 0 .522-.104.713-.29.192-.185.303-.437.312-.704 0-7.715-4.78-10.846-4.983-10.975-.229-.128-.498-.163-.752-.1-.253.064-.473.223-.614.444-.14.22-.192.487-.142.744.05.257.195.486.407.638h-.005zM7.993 24c.135 0 .269-.026.394-.078.124-.051.238-.126.333-.222.096-.095.171-.208.223-.333.052-.124.078-.258.078-.393-.137-4.297 1.134-8.521 3.62-12.029.982-1.376 2.217-2.554 3.638-3.47.23-.135.398-.356.468-.613.07-.258.037-.533-.093-.766-.13-.233-.345-.407-.6-.484-.256-.077-.532-.052-.768.071-1.649 1.03-3.081 2.369-4.217 3.944-2.797 3.878-4.238 8.569-4.1 13.347 0 .272.107.533.3.725.192.192.453.3.724.3zM3.486 18.125c.271 0 .532-.108.724-.3.192-.192.3-.453.3-.724 0-6.536 3.868-9.139 4.039-9.25.212-.152.358-.381.407-.638.05-.257-.001-.523-.142-.744-.14-.221-.36-.38-.614-.443-.254-.064-.523-.029-.751.1-.2.128-4.983 3.26-4.983 10.974 0 .272.108.533.3.725.192.192.453.3.725.3h-.005z"/>
</svg>
