<svg xmlns="http://www.w3.org/2000/svg" width="24" height="19" fill="none" viewBox="0 0 24 19">
    <path d="M9.757 18.132c-.318-.318-.21-.67.355-1.154.746-.639 1.37-.595 1.364.097-.001.204-.162.418-.569.759-.608.508-.872.576-1.15.298zm2.85-.09c-.209-.221-.264-.412-.276-.954-.01-.387.032-.677.096-.677.06 0 .412.27.78.599.63.565.661.615.555.92-.158.452-.78.512-1.156.112zm.873-1.965c-.984-.816-1.707-1.338-1.858-1.338-.326-.001-.528.367-.367.668.107.2.085.223-.217.223-.277 0-.365-.066-.493-.371-.199-.477-.664-.84-1.18-.923-.323-.052-.45-.149-.624-.473-.142-.265-.381-.483-.682-.623-.39-.181-.473-.28-.527-.62-.136-.848-1.191-1.363-2.02-.986-.175.08-.326.09-.388.028-.056-.057-.252-.654-.435-1.328-.222-.82-.408-1.286-.564-1.412-.127-.103-.232-.218-.232-.255 0-.055 2.494-3.065 3.978-4.8l.377-.44.36.213c.264.156.638.226 1.392.259.568.025 1.032.087 1.032.138 0 .051-.44.455-.976.897-1.96 1.615-2.259 1.982-2.259 2.784 0 .655.382 1.28.948 1.554.817.395 1.326.253 2.485-.694l.81-.663.928.762c1.32 1.085 4.086 3.417 5.112 4.31.968.843 1.092 1.156.587 1.486-.341.224-.324.234-2.263-1.4-1.768-1.492-2.064-1.702-2.279-1.62-.226.087-.35.437-.227.647.05.086.768.722 1.596 1.415 2.8 2.342 2.9 2.438 2.9 2.79 0 .365-.325.606-.67.497-.118-.038-1.25-.944-2.518-2.014-1.267-1.07-2.37-1.946-2.45-1.946-.194 0-.497.31-.497.508 0 .087.436.523.968.968 2.23 1.866 2.713 2.326 2.713 2.579 0 .331-.201.518-.558.518-.208 0-.752-.383-1.902-1.337zm-5.435.83c-.407-.286-.313-.643.306-1.162.446-.373.626-.457.92-.429.332.032.37.073.4.436.031.367-.015.438-.568.864-.676.522-.713.532-1.058.29zm-1.847-1.395c-.233-.334-.121-.588.487-1.1.619-.522.92-.569 1.175-.181.246.376.138.616-.494 1.098-.612.467-.933.517-1.168.183zm-1.362-1.603c-.226-.345-.113-.575.546-1.116.589-.482 1.023-.525 1.208-.12.166.365.044.606-.56 1.106-.57.472-.943.512-1.194.13zm13.038-2.316c-.297-.264-1.557-1.326-2.799-2.36-1.242-1.033-2.258-1.923-2.258-1.977 0-.054.125-.18.279-.28.517-.34.235-1.115-.31-.852-.136.066-.85.625-1.586 1.243-1.474 1.236-1.802 1.362-2.268.866-.29-.31-.308-.712-.045-1.045.294-.37 3.39-2.936 3.707-3.07.153-.066.796-.156 1.43-.2.918-.064 1.216-.129 1.474-.32l.323-.239 2.192 2.63 2.193 2.63-.284.298c-.201.212-.354.6-.524 1.327-.227.976-.57 1.693-.854 1.786-.071.024-.372-.173-.67-.437zM1.138 7.74L0 6.781.469 6.2C.955 5.596 5.389.29 5.62.037c.105-.115.37.053 1.314.836.65.54 1.186 1.036 1.19 1.102.005.067-.883 1.179-1.972 2.471s-2.331 2.778-2.76 3.302c-.43.524-.857.953-.949.953-.092 0-.68-.432-1.305-.96zm19.572.008c-.445-.53-1.388-1.647-2.094-2.482-1.819-2.147-2.676-3.198-2.676-3.28 0-.038.535-.526 1.188-1.085.959-.82 1.213-.986 1.32-.868.073.081.661.775 1.307 1.541 3.116 3.702 4.316 5.188 4.242 5.25-1.6 1.363-2.256 1.89-2.355 1.89-.067 0-.486-.435-.932-.966z"/>
</svg>
