<svg xmlns="http://www.w3.org/2000/svg" width="23" height="23" fill="none" viewBox="0 0 23 23">
    <path d="M11.5.001C5.15.001 0 5.149 0 11.501 0 17.85 5.149 23 11.5 23 17.852 23 23 17.852 23 11.5 23 5.15 17.852.002 11.5.002zm0 3.438c2.101 0 3.804 1.704 3.804 3.804 0 2.101-1.703 3.804-3.804 3.804-2.1 0-3.803-1.703-3.803-3.804 0-2.1 1.703-3.804 3.803-3.804zm-.002 16.554c-2.096 0-4.016-.763-5.496-2.026-.361-.308-.57-.759-.57-1.232 0-2.13 1.725-3.835 3.855-3.835h4.426c2.132 0 3.85 1.705 3.85 3.835 0 .474-.208.924-.57 1.231-1.48 1.264-3.4 2.027-5.495 2.027z"/>
</svg>
