<svg xmlns="http://www.w3.org/2000/svg" width="24" height="24" fill="none" viewBox="0 0 24 24">
    <path d="M10.4 8.821h3.2v11.2h-3.2v-11.2zM20.002 7.223h3.2v12.799h-3.2v-12.8zM15.202 16.024h3.201v3.998h-3.2v-3.998zM.801 10.423h3.2v9.599h-3.2v-9.599zM5.6 12.823h3.201v7.199h-3.2v-7.2zM.4 21.223h23.2v1.6H.4v-1.6z"/>
    <path d="M10.4 8.424c-.222 0-.4.178-.4.4v11.198c0 .222.178.4.4.4h3.2c.223 0 .4-.178.4-.4V8.825c0-.223-.177-.4-.4-.4h-3.2zm2.8 11.197h-2.4v-10.4h2.4v10.4zM20.002 6.822c-.223 0-.4.178-.4.4v12.8c0 .222.177.4.4.4h3.2c.222 0 .4-.178.4-.4v-12.8c0-.222-.178-.4-.4-.4h-3.2zm2.8 12.8h-2.4V7.622h2.4v11.998zM15.2 15.623c-.223 0-.401.179-.401.4v3.999c0 .222.178.4.4.4h3.2c.223 0 .401-.178.401-.4v-3.998c0-.223-.178-.4-.4-.4h-3.2zm2.8 3.998h-2.4v-3.2H18v3.2zM.8 20.422h3.202c.222 0 .4-.178.4-.4v-9.599c0-.222-.178-.4-.4-.4H.8c-.222 0-.4.178-.4.4v9.599c0 .222.178.4.4.4zm.401-9.598h2.4v8.8h-2.4v-8.8zM5.6 12.422c-.222 0-.4.179-.4.4v7.2c0 .222.178.4.4.4h3.2c.223 0 .401-.178.401-.4v-7.2c0-.221-.178-.4-.4-.4H5.6zm2.8 7.2H6v-6.399h2.4v6.398z"/>
    <path d="M2.4 6.422c.46 0 .898-.202 1.201-.552l2.036 1.02c-.192.861.354 1.716 1.215 1.908.862.192 1.717-.354 1.909-1.215.077-.35.037-.714-.118-1.037l2.426-2.023c.418.31.966.387 1.454.21l3.087 4.633c-.59.657-.536 1.67.12 2.259.657.589 1.67.535 2.259-.121.582-.65.538-1.646-.101-2.242l3.322-6.088c.128.033.259.05.39.05.889.007 1.62-.706 1.626-1.598.007-.889-.707-1.62-1.599-1.626-.888-.007-1.619.707-1.625 1.599-.004.447.181.878.508 1.188L17.19 8.878c-.3-.084-.619-.067-.912.044l-3.09-4.634c.593-.656.543-1.666-.114-2.259-.656-.592-1.666-.541-2.258.115-.438.481-.535 1.181-.256 1.767L8.135 5.934c-.667-.485-1.596-.377-2.13.249l-2.04-1.02c.185-.865-.367-1.713-1.232-1.898-.865-.185-1.713.367-1.898 1.231-.186.865.366 1.714 1.231 1.899.111.016.223.027.334.027zm19.2-5.6c.441 0 .801.356.801.8 0 .441-.357.801-.8.801-.445 0-.802-.356-.802-.8 0-.442.36-.798.801-.802zm-3.998 9.601c0 .441-.357.801-.801.801-.441 0-.801-.357-.801-.8 0-.445.357-.802.8-.802.442 0 .802.36.802.801zm-5.6-8c.44 0 .8.36.8.801 0 .441-.36.801-.8.801-.441 0-.801-.36-.801-.8 0-.445.36-.802.8-.802zm-4.8 3.999c.441 0 .801.356.801.8 0 .441-.356.802-.8.802-.445 0-.802-.357-.802-.801 0-.441.357-.801.801-.801zM2.4 4.022c.44 0 .8.357.8.8 0 .445-.356.802-.8.802-.441 0-.801-.357-.801-.801 0-.444.36-.801.8-.801zM23.6 20.823H.4c-.222 0-.4.178-.4.4v1.603c0 .222.178.4.4.4h23.2c.222 0 .4-.178.4-.4v-1.6c0-.225-.178-.403-.4-.403zm-.401 1.599H.801v-.801h22.398v.8z"/>
    <ellipse cx="11.78" cy="3.197" rx="1.01" ry="1.178"/>
    <ellipse cx="16.828" cy="10.602" rx="1.01" ry="1.178"/>
    <ellipse cx="7.068" cy="7.236" rx="1.01" ry="1.178"/>
    <ellipse cx="2.356" cy="4.88" rx="1.01" ry="1.178"/>
    <ellipse cx="21.54" cy="1.851" rx="1.01" ry="1.178"/>
</svg>
