<svg xmlns="http://www.w3.org/2000/svg" width="24" height="24" fill="none" viewBox="0 0 24 24">
    <path d="M6.087 7.13l3.478.522c.58-1.275 2.783-2.609 6.087-1.043 3.732 1.768 1.797 6.087.696 7.652l.521 3.304 2.087 1.565 2.61-2.086-1.392-2.261.87-2.261 2.26.174V8.87c0-.279-1.623-.232-2.434-.174l-.696-2.087 1.217-1.74-2.435-2.434-1.913 1.391-2.087-.696V.87L12.174.522l-.87.348-.348 2.26-2.087.696-1.913-1.391-2.26 2.782 1.39 1.913z"/>
    <path stroke="#fff" d="M10.522 14.034c.024.028.045.06.07.09-.025-.027-.05-.059-.07-.09zM10.275 13.752c.017.018.031.035.045.053-.014-.018-.031-.039-.045-.053zM10.748 14.371c.014.025.031.05.045.073l-.045-.073zM10.957 14.782l.03.08c-.013-.024-.02-.052-.03-.08zM9.92 13.446l.076.056c-.024-.018-.048-.038-.076-.056zM9.59 13.227l.097.06c-.035-.022-.066-.043-.097-.06zM9.805 18.64c.237-.15.456-.32.661-.509.056-.052.104-.114.146-.18.22-.355.383-.741.48-1.145-.195.745-.654 1.395-1.287 1.833zM8.393 12.827c.038.004.077.01.111.018-.038-.007-.073-.014-.11-.018zM9.252 13.053l.042.021-.042-.02zM11.078 15.15c.01.039.021.077.028.115-.007-.041-.017-.076-.028-.114zM7.98 19.2c-.091 0-.178-.011-.269-.018.09.007.178.017.268.017zM8.807 19.091l-.049.014.049-.014zM11.165 15.578l.01.07-.01-.07zM7.583 19.172c-.13-.018-.258-.042-.386-.074.125.032.253.056.386.074zM8.41 19.168c-.017.004-.034.007-.052.007.014 0 .035-.003.052-.007zM9.75 18.67c-.056.039-.115.074-.174.105.059-.028.118-.066.174-.104zM11.193 16.044l-.003.105.003-.105zM11.158 16.455l-.02.143c.01-.05.017-.098.02-.143zM8.79 12.904c.034.007.07.017.104.027-.035-.013-.07-.02-.104-.027z"/>
    <path d="M1.197 17.6h.441c.33 0 .63.205.745.515.045.122.094.236.146.355.139.302.073.657-.16.893l-.313.317c-.313.313-.313.817 0 1.13l1.13 1.13c.313.314.817.314 1.13 0l.314-.312c.236-.233.59-.3.893-.16.115.052.234.1.355.146.31.115.515.414.519.744v.442c0 .442.358.8.8.8h1.6c.441 0 .8-.358.8-.8v-.438c0-.33.205-.63.514-.745.122-.045.237-.094.355-.146.303-.139.658-.073.894.16l.313.313c.313.313.817.313 1.13 0l1.13-1.13c.314-.313.314-.817 0-1.13l-.312-.314c-.233-.236-.3-.59-.16-.893.052-.115.1-.233.146-.355.115-.31.414-.518.748-.518h.438c.442 0 .8-.359.8-.8v-1.6c0-.442-.358-.8-.8-.8h-.438c-.33 0-.63-.206-.745-.515-.045-.122-.093-.237-.146-.355-.139-.303-.076-.658.16-.894l.313-.313c.313-.313.313-.817 0-1.13l-1.13-1.13c-.313-.314-.817-.314-1.13 0l-.313.312c-.237.233-.592.3-.894.16-.115-.052-.234-.1-.355-.146-.31-.115-.518-.414-.518-.748v-.442c0-.441-.359-.8-.8-.8h-1.6c-.442 0-.8.359-.8.8v.439c0 .33-.21.626-.519.74-.118.046-.236.095-.355.147-.302.139-.657.073-.893-.16l-.317-.313c-.313-.313-.817-.313-1.13 0l-1.127 1.13c-.313.313-.313.818 0 1.13l.313.314c.236.236.299.59.16.893-.052.115-.101.234-.146.355-.119.31-.414.518-.745.515h-.441c-.442 0-.8.358-.8.8v1.6c-.004.445.354.803.8.807zm6-4.703c.26-.066.528-.1.8-.1.132 0 .264.01.396.027.038.004.077.01.111.018.098.014.192.034.286.059.034.007.07.017.104.028.122.034.24.076.358.125l.042.02c.1.046.202.098.296.154.03.017.062.042.097.059.08.052.16.104.236.163l.077.056c.097.077.188.16.275.247.017.017.031.035.045.052.07.073.136.153.202.233.024.032.045.06.07.09.058.08.11.16.16.248.013.024.03.048.044.073.06.107.115.222.164.337.01.028.02.056.031.08.035.094.066.188.094.285.01.039.021.077.028.112.024.104.045.208.06.316l.01.07c.014.115.02.233.02.351 0 .017 0 .031-.003.049 0 .035-.003.07-.003.104-.004.104-.014.205-.028.306l-.021.143c-.014.073-.031.142-.049.212-.097.403-.26.79-.48 1.144-.042.066-.09.126-.146.181-.205.191-.424.362-.66.508l-.053.035c-.06.035-.115.073-.174.104-.243.14-.5.244-.769.313l-.048.014c-.115.028-.23.049-.348.066-.018.004-.035.007-.056.007-.118.014-.24.021-.358.024h-.024c-.09 0-.178-.01-.268-.017-.045-.003-.087-.003-.132-.01-.13-.018-.258-.042-.386-.073-1.712-.442-2.741-2.192-2.3-3.903.296-1.137 1.176-2.017 2.3-2.31z"/>
    <path stroke="#fff" d="M10.793 14.445c.059.108.114.223.163.338-.049-.115-.1-.226-.163-.338zM10.987 14.866c.035.094.066.188.094.285-.028-.097-.059-.191-.094-.285zM11.196 16c0-.115-.007-.233-.021-.348.014.132.02.264.017.397.004-.018.004-.035.004-.049zM11.109 15.263c.024.104.045.208.059.316-.017-.104-.035-.212-.06-.316zM8.504 12.842c.097.014.191.034.285.059-.09-.021-.188-.042-.285-.06zM7.996 12.8c.132 0 .264.01.396.028-.132-.021-.264-.028-.396-.028zM9.293 13.075c.101.045.202.097.296.153-.097-.06-.195-.108-.296-.153zM8.893 12.929c.122.034.24.076.359.125-.115-.049-.237-.09-.359-.125zM10.587 14.129c.06.08.111.16.16.247-.049-.087-.1-.17-.16-.247zM10.32 13.802c.069.073.135.153.198.233-.06-.08-.126-.157-.199-.233zM9.683 13.284c.08.052.16.104.236.163-.073-.06-.153-.111-.236-.163zM9.996 13.503c.097.076.188.16.275.247-.087-.087-.178-.17-.275-.247zM9.575 18.78c-.243.135-.5.24-.769.312.268-.07.53-.174.77-.313zM8.758 19.103c-.115.027-.23.048-.348.066.115-.014.233-.039.348-.066zM7.996 19.197c.122 0 .24-.007.362-.021-.126.014-.25.02-.376.02h.014zM7.714 19.18c-.045-.004-.09-.004-.132-.011.042.007.087.007.132.01zM11.189 16.15c-.004.1-.014.201-.028.306.014-.101.024-.206.028-.306zM9.801 18.64c-.017.01-.035.024-.052.035l.052-.035zM11.14 16.595c-.014.07-.031.139-.048.212.017-.07.034-.14.048-.212z"/>
    <path d="M14.796 14h-.438c-.167 0-.313-.104-.368-.257-.05-.13-.101-.254-.157-.376-.07-.15-.038-.33.08-.445l.313-.313c.466-.47.466-1.228-.003-1.698l-1.13-1.13c-.47-.466-1.229-.466-1.698 0l-.313.313c-.119.118-.296.15-.446.08-.125-.056-.25-.108-.379-.16-.156-.056-.26-.205-.26-.372v-.439c0-.664-.536-1.2-1.2-1.2h-1.6c-.665 0-1.2.536-1.2 1.2v.439c0 .167-.105.313-.258.372-.129.049-.254.1-.376.156-.15.07-.33.039-.445-.08l-.313-.313c-.47-.466-1.228-.466-1.697 0l-1.13 1.134c-.467.47-.467 1.228 0 1.698l.312.313c.119.118.15.295.08.445-.055.125-.107.25-.156.38-.056.156-.205.26-.372.257H1.2c-.66 0-1.2.535-1.2 1.2v1.6c0 .664.536 1.2 1.2 1.2h.442c.167 0 .313.104.368.257.05.129.101.254.157.376.07.15.038.33-.08.445l-.313.313c-.466.47-.466 1.228 0 1.697l1.13 1.13c.47.467 1.228.467 1.698 0l.313-.312c.118-.119.295-.15.445-.08.125.055.25.107.38.16.156.055.26.205.26.372v.438c0 .664.536 1.2 1.2 1.2h1.6c.664 0 1.2-.536 1.2-1.2v-.438c0-.167.104-.313.257-.372.13-.05.254-.101.376-.157.15-.07.33-.038.445.08l.313.313c.47.466 1.228.463 1.698-.003l1.13-1.13c.466-.47.466-1.229 0-1.698l-.313-.313c-.118-.119-.15-.296-.08-.445.056-.126.108-.25.16-.38.056-.156.205-.26.372-.26h.442c.664 0 1.2-.536 1.2-1.2v-1.6c-.004-.661-.543-1.197-1.204-1.197zm.4 2.8c0 .223-.177.4-.4.4h-.438c-.497.003-.942.31-1.12.772-.041.111-.09.223-.139.33-.205.456-.111.988.24 1.343l.313.313c.157.157.157.41 0 .567l-1.13 1.13c-.157.157-.41.157-.567 0l-.313-.312c-.355-.352-.887-.446-1.343-.24-.108.048-.219.093-.33.139-.463.177-.772.622-.772 1.12v.438c0 .223-.178.4-.4.4h-1.6c-.223 0-.4-.177-.4-.4v-.438c-.004-.498-.31-.943-.773-1.12-.111-.042-.222-.09-.33-.14-.456-.205-.988-.11-1.343.24l-.313.314c-.156.156-.41.156-.567 0l-1.13-1.13c-.157-.157-.157-.411 0-.568l.313-.313c.351-.355.445-.887.24-1.342-.049-.108-.094-.22-.14-.33-.177-.467-.622-.773-1.12-.776h-.437c-.223 0-.4-.178-.4-.4v-1.6c0-.223.177-.4.4-.4h.438c.497-.004.942-.31 1.12-.773.042-.111.09-.222.139-.33.205-.456.111-.988-.24-1.343l-.313-.313c-.157-.156-.157-.41 0-.567l1.13-1.13c.157-.157.41-.157.567 0l.313.313c.355.351.887.445 1.343.24.108-.049.219-.094.33-.14.466-.177.773-.622.776-1.12v-.437c0-.223.177-.4.4-.4h1.6c.223 0 .4.177.4.4v.438c.003.497.31.942.772 1.12.112.041.223.09.33.139.456.205.988.111 1.343-.24l.313-.313c.157-.157.41-.157.567 0l1.13 1.13c.157.157.157.41 0 .567l-.312.313c-.352.355-.446.887-.24 1.343.048.108.094.219.139.33.177.463.622.773 1.12.773h.434c.223 0 .4.177.4.4V16.8z"/>
    <path d="M11.586 15.84c-.003-.097-.01-.191-.02-.285-.015-.101-.029-.205-.05-.303-.013-.066-.03-.129-.048-.195-.024-.083-.049-.163-.077-.243-.02-.056-.038-.111-.062-.167-.052-.129-.112-.254-.178-.376-.003-.01-.007-.017-.014-.028-.104-.184-.226-.361-.361-.525-.01-.014-.025-.028-.038-.041-.056-.067-.112-.13-.171-.188-.031-.032-.063-.063-.097-.094-.039-.038-.08-.073-.122-.108-.049-.042-.098-.084-.15-.122l-.066-.048c-.619-.463-1.37-.714-2.146-.714-.038 0-.08.007-.122.007-.087.004-.17.007-.257.018-.045.003-.09.01-.136.017-.128.018-.26.042-.386.073-1.927.498-3.085 2.463-2.584 4.39.327 1.27 1.318 2.26 2.588 2.588.007 0 .014 0 .02.003.14.035.279.063.422.08.093.01.187.014.278.017.062.004.122.014.184.014.115 0 .233-.006.351-.02.014 0 .028-.004.039-.007.097-.01.194-.025.295-.046.039-.007.077-.017.115-.027.07-.018.14-.035.212-.056.056-.018.112-.035.164-.056.052-.02.111-.038.167-.062l.156-.07c.066-.031.136-.063.199-.097h.003c.372-.199.716-.449 1.026-.741.084-.077.157-.167.216-.261.313-.5.518-1.06.601-1.645.01-.077.021-.153.028-.233.007-.073.01-.146.01-.216 0-.024.004-.045.004-.066.018-.063.01-.115.007-.167zm-4.292-2.553c.23-.06.466-.087.703-.087.114 0 .23.007.34.024l.09.014c.088.014.171.032.258.052l.084.021c.212.063.417.146.608.258.032.017.063.038.09.055.064.039.126.08.185.126.032.024.066.045.098.073.08.062.153.128.226.201.028.028.055.06.083.09.045.05.09.102.132.157.028.039.06.077.087.115.039.06.08.118.115.178l.06.1c.051.094.097.192.138.293.018.038.028.08.046.121.024.073.048.146.07.223.01.038.02.076.027.115.024.107.042.219.052.327.004.027.004.059.004.087.007.094.007.184.003.278 0 .035-.003.066-.003.1-.007.098-.021.196-.035.293-.15.831-.665 1.551-1.405 1.962-.049.027-.098.048-.146.073l-.035.017c-.233.104-.477.18-.73.223-.018.003-.035.007-.053.007-.049.007-.1.014-.15.017-.062.007-.128.007-.194.01h-.087c-.094 0-.188-.006-.282-.017l-.049-.007c-.11-.014-.219-.035-.327-.063-1.499-.382-2.403-1.906-2.02-3.405.25-1.002 1.026-1.777 2.017-2.031zM22.797 8.4h-1.26c-.166 0-.316-.104-.372-.26-.125-.373-.274-.735-.448-1.086-.073-.153-.046-.334.076-.452l.89-.894c.47-.47.47-1.228 0-1.698l-1.7-1.697c-.47-.47-1.228-.47-1.698 0l-.89.89c-.118.122-.3.154-.452.077-.352-.177-.713-.327-1.086-.452-.16-.056-.264-.205-.264-.372V1.2c0-.66-.536-1.2-1.2-1.2h-2.4c-.664 0-1.2.536-1.2 1.2v1.26c0 .166-.104.316-.26.371-.373.126-.735.275-1.086.452-.153.074-.334.046-.452-.076l-.894-.89c-.47-.467-1.228-.467-1.697 0L4.706 4.014c-.47.47-.47 1.228 0 1.697l1.311 1.315c.16.153.414.15.567-.01.15-.153.15-.4 0-.553l-1.31-1.315c-.157-.157-.157-.41 0-.567l1.7-1.698c.157-.156.41-.156.567 0l.894.89c.362.366.915.457 1.374.227.316-.16.643-.296.98-.407.484-.163.811-.62.808-1.13v-1.26c0-.222.177-.4.4-.4h2.4c.222 0 .4.178.4.4v1.26c-.004.51.323.967.807 1.13.337.111.664.25.98.407.46.226 1.013.136 1.374-.226l.894-.89c.157-.157.41-.157.567 0l1.698 1.697c.156.156.156.41 0 .563l-.89.894c-.363.362-.457.915-.227 1.374.16.317.296.644.407.981.163.484.62.81 1.13.807h1.26c.222 0 .4.177.4.4V12c0 .223-.178.4-.4.4h-1.26c-.51-.004-.966.323-1.13.807-.111.337-.25.664-.407.98-.23.46-.136 1.013.226 1.375l.89.894c.157.156.157.41 0 .567L19.42 18.72c-.156.157-.41.157-.563 0l-1.315-1.311c-.153-.16-.404-.167-.567-.018-.16.153-.167.404-.017.567l.007.007.01.01 1.315 1.312c.47.47 1.228.47 1.697 0l1.698-1.697c.47-.47.47-1.228 0-1.698l-.89-.89c-.123-.119-.154-.3-.077-.452.177-.352.327-.714.452-1.086.055-.16.205-.264.372-.264h1.26c.663 0 1.2-.536 1.2-1.2V9.6c0-.664-.54-1.2-1.204-1.2z"/>
    <path d="M16.873 7.123c-2.031-2.027-5.322-2.027-7.353 0-.153.16-.146.414.01.567.153.15.4.15.553 0 1.708-1.728 4.494-1.75 6.223-.041 1.729 1.708 1.75 4.494.042 6.222l-.042.042c-.16.153-.164.407-.01.567.153.16.407.163.567.01l.01-.01c2.028-2.035 2.028-5.325 0-7.357z"/>
</svg>
