<svg xmlns="http://www.w3.org/2000/svg" width="24" height="24" fill="none" viewBox="0 0 24 24">
    <path stroke="#B9B9B9" d="M13.983 10.983l.102 9.814 8.084.355-.05-8.39-.204-1.626-7.932-.153zm1.271 1.83h2.187c.197 0 .355.16.355.356v1.933c0 .197-.158.356-.355.356h-2.187c-.197 0-.356-.16-.356-.356v-1.933c0-.197.159-.356.356-.356zm3.408 0h2.187c.197 0 .356.16.356.356v1.933c0 .197-.159.356-.356.356h-2.187c-.197 0-.355-.16-.355-.356v-1.933c0-.197.158-.356.355-.356zm-3.382 3.56h2.186c.197 0 .356.159.356.356v1.932c0 .197-.159.356-.356.356H15.28c-.198 0-.356-.159-.356-.356v-1.932c0-.197.158-.356.356-.356zm3.406 0h2.187c.197 0 .356.159.356.356v1.932c0 .197-.159.356-.356.356h-2.187c-.197 0-.356-.159-.356-.356v-1.932c0-.197.16-.356.356-.356zM2.187 2.95L1.83 4.17l.152 17.084h6.915l-.254-5.644 3.712.102v5.237l1.627-.05V5.44l-.152-1.78-11.644-.712zm1.627 1.866h2.949c.197 0 .356.159.356.356v1.932c0 .197-.159.356-.356.356h-2.95c-.197 0-.355-.159-.355-.356V5.172c0-.197.158-.356.356-.356zm4.983.051h2.949c.197 0 .356.159.356.356v1.932c0 .197-.159.356-.356.356h-2.95c-.197 0-.355-.159-.355-.356V5.223c0-.197.158-.356.356-.356zM3.864 8.248h2.95c.197 0 .356.16.356.356v1.933c0 .197-.16.355-.356.355h-2.95c-.197 0-.355-.158-.355-.355V8.604c0-.197.158-.356.356-.356zm4.984.145h2.949c.197 0 .356.159.356.356v1.932c0 .197-.16.356-.356.356h-2.95c-.197 0-.355-.159-.355-.356V8.75c0-.197.158-.356.356-.356zm0 3.586h2.949c.197 0 .356.16.356.356v1.932c0 .198-.16.356-.356.356h-2.95c-.197 0-.355-.158-.355-.355v-1.933c0-.197.158-.356.356-.356zm-4.984.043h2.95c.197 0 .356.159.356.356v1.932c0 .198-.16.356-.356.356h-2.95c-.197 0-.355-.158-.355-.356v-1.932c0-.197.158-.356.356-.356zm.051 4.147h2.95c.197 0 .355.16.355.357v1.932c0 .197-.158.356-.356.356H3.915c-.197 0-.356-.16-.356-.356v-1.932c0-.198.16-.357.356-.357z"/>
    <path d="M22.828 20.85h-.297v-5.805c0-.194-.158-.352-.352-.352-.194 0-.351.158-.351.352v5.806H14.37V11.293h7.17c.159 0 .288.13.288.288v1.808c0 .194.157.351.351.351.194 0 .352-.157.352-.351V11.58c0-.546-.445-.99-.99-.99H14.37V4.2c0-.51-.398-.943-.908-.986V2.51c0-.514-.4-.947-.913-.988L3.444.81c-.575-.046-1.068.41-1.068.987v.563c-.52.045-.907.48-.907.987v17.505h-.297C.526 20.85 0 21.375 0 22.021c0 .647.526 1.172 1.172 1.172h21.656c.646 0 1.172-.525 1.172-1.172 0-.646-.526-1.171-1.172-1.171zM3.08 1.797c0-.168.143-.3.31-.286l9.104.713c.149.012.265.138.265.287v.65L3.08 2.4v-.605zm-.907 1.55c0-.17.145-.3.31-.286l4.14.324 6.778.531c.149.012.265.138.265.287V20.85h-.982v-5.034c0-.32-.26-.58-.58-.58H8.837c-.32 0-.58.26-.58.58v2.28c0 .195.158.352.352.352.194 0 .351-.157.351-.351V15.94h3.02v4.91H8.96v-1.109c0-.194-.157-.351-.351-.351-.194 0-.352.157-.352.351v1.11H2.173V3.346zm20.655 19.145H1.172c-.259 0-.469-.21-.469-.469 0-.258.21-.468.469-.468h21.656c.259 0 .469.21.469.468 0 .259-.21.47-.469.47z"/>
</svg>
