<svg xmlns="http://www.w3.org/2000/svg" width="35" height="35" fill="none" viewBox="0 0 35 35">
    <g clip-path="url(#clip0)">
        <path fill="#D5E8F2" d="M12.017 14.583h-3.85c-1.289 0-2.334 1.045-2.334 2.334V12.25c0-1.289 1.045-2.333 2.334-2.333h3.015c-.273 1.605.022 3.255.835 4.666z"/>
        <path fill="#86C5D3" d="M30.333 12.25v19.833c0 1.289-1.044 2.334-2.333 2.334H8.167c-1.289 0-2.334-1.045-2.334-2.334V28h5.834c1.931-.003 3.497-1.568 3.5-3.5 0-1.933-1.567-3.5-3.5-3.5H5.833v-4.083c0-1.289 1.045-2.334 2.334-2.334H28c.62.001 1.213-.245 1.65-.682.439-.438.684-1.032.683-1.651z"/>
        <path fill="#D5E8F2" d="M29.65 13.9c-.296.29-.664.497-1.067.6v17.583c0 1.289-1.044 2.334-2.333 2.334H28c1.289 0 2.333-1.045 2.333-2.334V12.25c0 .619-.246 1.212-.682 1.65z"/>
        <path fill="#D5E8F2" d="M30.334 12.25c0 .62-.245 1.213-.683 1.65-.438.438-1.032.684-1.65.683h-3.85c.811-1.41 1.107-3.061.833-4.666H28c1.289 0 2.334 1.044 2.334 2.333z"/>
        <path fill="#fff" d="M25.083 11.083c.004 1.229-.318 2.437-.933 3.5H12.017c-1.467-2.548-1.185-5.742.706-7.994 1.892-2.252 4.989-3.081 7.752-2.076 2.764 1.004 4.605 3.63 4.608 6.57z"/>
        <path fill="#B5DBFF" d="M24.984 9.917c-.569-3.368-3.485-5.833-6.9-5.834-.293.002-.585.021-.876.059 2.327.292 4.352 1.73 5.396 3.829 1.044 2.099.967 4.581-.204 6.612h1.75c.812-1.41 1.107-3.061.834-4.666z"/>
        <path fill="#FFDC00" d="M21.035 14.583c.007-.07.005-.14-.006-.21l-.326-1.971c-.035-.219.034-.44.186-.601l1.371-1.389c.178-.178.243-.44.17-.682-.073-.24-.273-.422-.52-.473l-1.913-.285c-.21-.037-.389-.175-.479-.368l-.863-1.814c-.1-.226-.324-.372-.572-.372-.247 0-.471.146-.571.372l-.864 1.814c-.09.193-.268.33-.478.368l-1.913.285c-.247.05-.447.232-.52.473-.073.242-.008.504.17.682l1.37 1.389c.153.16.222.382.187.6l-.326 1.972c-.011.07-.013.14-.006.21h5.903z"/>
        <path fill="#5A8EB4" d="M15.167 24.5c-.003 1.932-1.569 3.497-3.5 3.5H5.833c-.643-.002-1.164-.523-1.166-1.167v-4.666c.002-.644.523-1.165 1.166-1.167h5.834c1.933 0 3.5 1.567 3.5 3.5z"/>
        <path fill="#84C8C4" d="M11.667 21h-1.75c1.933 0 3.5 1.567 3.5 3.5-.003 1.932-1.569 3.497-3.5 3.5h1.75c1.931-.003 3.497-1.568 3.5-3.5 0-.928-.369-1.819-1.025-2.475C13.485 21.37 12.595 21 11.667 21z"/>
        <path fill="#9E9E9E" d="M11.667 25.667c.644 0 1.167-.523 1.167-1.167s-.523-1.167-1.167-1.167-1.167.523-1.167 1.167.523 1.167 1.167 1.167z"/>
        <path fill="#4878BF" d="M18.083 2.333c.323 0 .584-.26.584-.583V.583c0-.322-.262-.583-.584-.583-.322 0-.583.261-.583.583V1.75c0 .322.261.583.583.583zM21.583 2.917c.323 0 .584-.262.584-.584V1.167c0-.323-.262-.584-.584-.584-.322 0-.583.261-.583.584v1.166c0 .322.261.584.583.584zM14.583 2.917c.322 0 .584-.262.584-.584V1.167c0-.323-.261-.584-.584-.584-.322 0-.583.261-.583.584v1.166c0 .322.261.584.583.584zM5.25 28.476v3.607c.002 1.61 1.307 2.915 2.917 2.917H28c1.61-.002 2.915-1.307 2.917-2.917V12.25C30.915 10.64 29.61 9.335 28 9.333h-2.544c-.809-3.418-3.86-5.832-7.373-5.832-3.512 0-6.564 2.414-7.372 5.832H8.167c-1.61.002-2.915 1.307-2.917 2.917v8.274c-.697.246-1.164.904-1.167 1.643v4.666c.003.74.47 1.397 1.167 1.643zm24.5-16.226c.001.464-.183.91-.512 1.239-.328.328-.773.512-1.238.511h-2.913c.383-.925.58-1.916.58-2.917 0-.193-.01-.388-.025-.583H28c.966 0 1.75.784 1.75 1.75zm-17.992-2.237c.41-2.501 2.254-4.527 4.707-5.169 2.452-.642 5.052.22 6.635 2.2 1.584 1.979 1.854 4.705.689 6.956h-2.23l-.28-1.692c-.006-.034.003-.069.025-.096l1.371-1.389c.338-.343.453-.846.3-1.302-.142-.442-.52-.767-.98-.84l-1.9-.283c-.022-.006-.041-.022-.05-.043l-.862-1.812c-.197-.43-.626-.707-1.1-.707-.472 0-.902.276-1.099.707l-.863 1.816c-.007.017-.02.031-.037.04l-1.916.286c-.458.073-.835.397-.976.838-.154.457-.038.96.3 1.303l1.365 1.383c.025.027.036.064.032.101l-.28 1.692h-2.231c-.636-1.226-.853-2.626-.62-3.987v-.002zm3.934 1.378l-1.371-1.388c-.03-.031-.038-.077-.023-.117.007-.021.021-.048.044-.052l1.925-.287c.397-.07.735-.328.906-.692l.864-1.814.046-.041.908 1.851c.174.37.518.63.92.696l1.91.286c.025.004.04.03.046.052.016.04.007.086-.022.117l-1.376 1.394c-.28.293-.407.7-.342 1.1l.25 1.504H15.79l.249-1.504c.064-.403-.065-.812-.348-1.105zM8.167 10.5h2.357c-.015.195-.024.39-.024.583 0 1.001.197 1.992.58 2.917H8.167c-.633.002-1.248.212-1.75.598V12.25c0-.966.783-1.75 1.75-1.75zm0 4.667H28c.633-.004 1.247-.214 1.75-.599v17.515c0 .967-.784 1.75-1.75 1.75H8.167c-.967 0-1.75-.783-1.75-1.75v-3.5h5.25c2.255 0 4.083-1.828 4.083-4.083s-1.828-4.083-4.083-4.083h-5.25v-3.5c0-.967.783-1.75 1.75-1.75zm-2.917 7c0-.323.261-.584.583-.584h5.834c1.61 0 2.916 1.306 2.916 2.917 0 1.61-1.306 2.917-2.916 2.917H5.833c-.322 0-.583-.262-.583-.584v-4.666z"/>
        <path fill="#4878BF" d="M11.667 26.25c.966 0 1.75-.784 1.75-1.75s-.784-1.75-1.75-1.75c-.967 0-1.75.784-1.75 1.75s.783 1.75 1.75 1.75zm0-2.333c.322 0 .583.26.583.583 0 .322-.261.583-.583.583-.322 0-.584-.26-.584-.583 0-.322.262-.583.584-.583zM26.25 17.5h.583c.323 0 .584-.261.584-.583 0-.323-.262-.584-.584-.584h-.583c-.322 0-.583.262-.583.584 0 .322.26.583.583.583zM23.333 17.5h.584c.322 0 .583-.261.583-.583 0-.323-.261-.584-.583-.584h-.584c-.322 0-.583.262-.583.584 0 .322.261.583.583.583zM20.417 17.5H21c.322 0 .583-.261.583-.583 0-.323-.26-.584-.583-.584h-.583c-.323 0-.584.262-.584.584 0 .322.262.583.584.583zM17.5 17.5h.583c.323 0 .584-.261.584-.583 0-.323-.262-.584-.584-.584H17.5c-.322 0-.583.262-.583.584 0 .322.26.583.583.583zM14.583 17.5h.584c.322 0 .583-.261.583-.583 0-.323-.261-.584-.583-.584h-.584c-.322 0-.583.262-.583.584 0 .322.261.583.583.583zM11.667 17.5h.583c.322 0 .583-.261.583-.583 0-.323-.26-.584-.583-.584h-.583c-.322 0-.584.262-.584.584 0 .322.261.583.584.583zM8.75 17.5h.583c.322 0 .584-.261.584-.583 0-.323-.262-.584-.584-.584H8.75c-.322 0-.583.262-.583.584 0 .322.26.583.583.583zM26.25 32.667h.583c.323 0 .584-.261.584-.584 0-.322-.262-.583-.584-.583h-.583c-.322 0-.583.261-.583.583 0 .323.26.584.583.584zM23.333 32.667h.584c.322 0 .583-.261.583-.584 0-.322-.261-.583-.583-.583h-.584c-.322 0-.583.261-.583.583 0 .323.261.584.583.584zM20.417 32.667H21c.322 0 .583-.261.583-.584 0-.322-.26-.583-.583-.583h-.583c-.323 0-.584.261-.584.583 0 .323.262.584.584.584zM17.5 32.667h.583c.323 0 .584-.261.584-.584 0-.322-.262-.583-.584-.583H17.5c-.322 0-.583.261-.583.583 0 .323.26.584.583.584zM15.167 31.5h-.584c-.322 0-.583.261-.583.583 0 .323.261.584.583.584h.584c.322 0 .583-.261.583-.584 0-.322-.261-.583-.583-.583zM12.25 31.5h-.583c-.322 0-.584.261-.584.583 0 .323.261.584.584.584h.583c.322 0 .583-.261.583-.584 0-.322-.26-.583-.583-.583zM9.333 31.5H8.75c-.322 0-.583.261-.583.583 0 .323.26.584.583.584h.583c.322 0 .584-.261.584-.584 0-.322-.262-.583-.584-.583z"/>
    </g>
    <defs>
        <clipPath id="clip0">
            <path fill="#fff" d="M0 0H35V35H0z"/>
        </clipPath>
    </defs>
</svg>
