<svg xmlns="http://www.w3.org/2000/svg" width="17" height="16" fill="none" viewBox="0 0 17 16">
    <path fill="#000" d="M0.95 0H16.95V16H0.95z" opacity=".01"/>
    <path fill="#268FEE" fill-rule="evenodd" d="M13.95 6.333L10.617 3l1.39-1.39c.521-.521 1.365-.521 1.886 0l1.448 1.447c.52.521.52 1.365 0 1.886l-1.39 1.39zM3.57 10.166L2.448 14.09c-.033.116 0 .242.085.327.086.086.21.118.327.085l3.924-1.121c.109-.031.208-.09.288-.17l5.878-5.878L9.617 4 3.739 9.878c-.08.08-.138.18-.17.288z" clip-rule="evenodd"/>
</svg>
