<svg xmlns="http://www.w3.org/2000/svg" width="17" height="16" fill="none" viewBox="0 0 17 16">
    <path fill="#000" d="M0.963 0H16.963V16H0.963z" opacity=".01"/>
    <path fill="#0D98E8" fill-rule="evenodd" d="M1.463 8c0-4.15 3.35-7.5 7.5-7.5s7.5 3.35 7.5 7.5-3.35 7.5-7.5 7.5-7.5-3.35-7.5-7.5zm7.5 4.7c2.05 0 3.9-1.35 4.5-3.35.05-.3-.1-.55-.35-.65-.25-.05-.5.1-.6.35-.45 1.55-1.9 2.65-3.55 2.65-2.05 0-3.7-1.65-3.7-3.7 0-2.05 1.65-3.7 3.7-3.7.95 0 1.85.35 2.55 1h-.35c-.3 0-.5.2-.5.5s.2.5.5.5h1.65c.3 0 .5-.2.5-.5V4.45c0-.3-.2-.5-.5-.5s-.5.2-.5.5v.25c-.85-.9-2.05-1.4-3.35-1.4-2.6 0-4.7 2.1-4.7 4.7s2.1 4.7 4.7 4.7z" clip-rule="evenodd"/>
</svg>
