<svg xmlns="http://www.w3.org/2000/svg" width="17" height="16" fill="none" viewBox="0 0 17 16">
    <path fill="#000" d="M0.481 0H16.481V16H0.481z" opacity=".01"/>
    <path fill="#268FEE" fill-rule="evenodd" d="M15.861 7.405c-1.56-3.15-4.075-5.09-7.38-5.11-3.305-.02-5.82 1.96-7.38 5.11-.162.382-.162.813 0 1.195 1.56 3.145 4.075 5.085 7.38 5.105 3.305.02 5.84-1.96 7.4-5.11.158-.382.15-.813-.02-1.19zm-7.38 4.165c-1.444.002-2.747-.867-3.301-2.2-.555-1.334-.25-2.87.77-3.893 1.02-1.022 2.557-1.328 3.891-.776 1.335.553 2.205 1.855 2.205 3.299.002.946-.373 1.854-1.042 2.524-.669.67-1.576 1.046-2.523 1.046zM6.981 8c0-.828.672-1.5 1.5-1.5.829 0 1.5.672 1.5 1.5s-.671 1.5-1.5 1.5c-.828 0-1.5-.672-1.5-1.5z" clip-rule="evenodd"/>
</svg>
