<svg xmlns="http://www.w3.org/2000/svg" width="27" height="27" fill="none" viewBox="0 0 27 27">
    <path fill="#D5E8F2" d="M24.065 7.63v17.61c0 .645-.528 1.173-1.174 1.173H4.108c-.645 0-1.173-.528-1.173-1.174V1.761c0-.646.528-1.174 1.173-1.174h12.913v3.522H6.457V7.63h17.609z"/>
    <path fill="#4878BF" d="M18.195 0H4.11c-.971 0-1.761.79-1.761 1.76v23.48c0 .97.79 1.76 1.76 1.76h18.783c.971 0 1.761-.79 1.761-1.76V6.456c0-.156-.062-.306-.172-.415L18.61.172C18.5.062 18.351 0 18.195 0zM7.043 7.043V4.696h9.392v2.347H7.043zm15.848 18.783H4.11c-.324 0-.587-.264-.587-.587V1.761c0-.324.263-.587.587-.587h12.326v2.348H6.456c-.324 0-.587.263-.587.587V7.63c0 .324.263.587.587.587H23.478V25.24c0 .323-.264.587-.587.587zm.587-18.783h-5.87v-5.87h.345L23.477 6.7v.343z"/>
    <path fill="#4878BF" d="M6.457 11.74H13.5c.324 0 .587-.264.587-.588 0-.324-.263-.587-.587-.587H6.457c-.324 0-.587.263-.587.587 0 .324.263.587.587.587zM6.457 18.783H13.5c.324 0 .587-.263.587-.587 0-.324-.263-.587-.587-.587H6.457c-.324 0-.587.263-.587.587 0 .324.263.587.587.587zM20.544 14.087H6.457c-.324 0-.587.263-.587.587 0 .324.263.587.587.587h14.087c.323 0 .587-.263.587-.587 0-.324-.264-.587-.587-.587zM20.544 21.13H6.457c-.324 0-.587.263-.587.587 0 .324.263.587.587.587h14.087c.323 0 .587-.263.587-.587 0-.324-.264-.587-.587-.587z"/>
</svg>
