<svg xmlns="http://www.w3.org/2000/svg" width="29" height="29" fill="none" viewBox="0 0 29 29">
    <path fill="#6CBBD5" d="M23.053 2.605H5.947C2.667 2.605 0 5.273 0 8.553v9.185c0 2.617 1.718 4.896 4.208 5.626l2.872 2.872c.16.16.375.249.6.249.226 0 .442-.09.601-.249l2.635-2.635h12.137c3.28 0 5.947-2.668 5.947-5.947V8.553c0-3.28-2.668-5.948-5.947-5.948zM27.3 17.654c0 2.342-1.906 4.248-4.248 4.248H10.565c-.226 0-.442.09-.601.249L7.68 24.434l-2.432-2.432c-.109-.109-.246-.186-.395-.223-1.858-.463-3.155-2.124-3.155-4.04V8.552c0-2.343 1.906-4.248 4.248-4.248h17.106c2.342 0 4.248 1.905 4.248 4.248v9.1z"/>
    <path fill="#6CBBD5" d="M19.895 10.752H9.105c-.469 0-.85.38-.85.85 0 .469.381.85.85.85h10.79c.469 0 .85-.381.85-.85 0-.47-.381-.85-.85-.85zM19.895 13.755H9.105c-.469 0-.85.38-.85.85s.381.85.85.85h10.79c.469 0 .85-.38.85-.85s-.381-.85-.85-.85z"/>
</svg>
