<svg xmlns="http://www.w3.org/2000/svg" width="72" height="71" fill="none" viewBox="0 0 72 71">
    <path fill="#CDDDFC" stroke="#fff" d="M22.207 44.673l-4.436 2.736c-.2.124-.423.206-.655.244-.232.038-.47.03-.698-.025-.23-.054-.445-.153-.636-.29-.19-.138-.352-.312-.476-.512l-2.507-4.064c-.124-.2-.207-.423-.244-.655-.037-.232-.029-.47.025-.699.055-.228.153-.444.291-.635.138-.19.312-.353.512-.476l4.436-2.736c.124-.077.262-.128.405-.151.144-.023.29-.018.432.016.142.033.276.094.393.18.119.084.219.192.295.316l3.224 5.226c.076.124.128.261.151.405.023.144.018.29-.016.432-.033.142-.094.276-.18.394-.085.117-.192.218-.316.294v0z"/>
    <path fill="#CDDDFC" stroke="#fff" d="M24.928 30.155l-9 5.555c-.569.351-.975.914-1.129 1.565-.154.65-.043 1.335.308 1.904l4.44 7.2c.351.569.914.975 1.564 1.13.65.154 1.336.043 1.905-.308l9-5.555 28.477-6.2L43.241 7.483 24.928 30.155z"/>
    <path fill="#F5B556" stroke="#fff" d="M16.949 42.17l2.593 4.2c.351.569.914.975 1.564 1.13.65.154 1.336.043 1.905-.308l9-5.555 28.478-6.2s-14.643 3.472-26.982 5.329c-8.494 1.282-15.988 1.054-16.558 1.404z"/>
    <path fill="#fff" stroke="#fff" d="M32.017 41.641l-9 5.555c-.569.351-1.254.462-1.905.307-.65-.154-1.213-.56-1.564-1.129l-4.44-7.2c-.351-.569-.462-1.254-.308-1.904.154-.651.56-1.214 1.129-1.565l9-5.555 7.088 11.491z"/>
    <path fill="#fff" stroke="#fff" d="M16.949 42.17l2.593 4.2c.351.569.914.975 1.564 1.13.65.154 1.336.043 1.905-.308l9-5.555s-13.668-.327-15.062.533zM60.971 38.187c-.306.189-.674.248-1.024.165-.35-.083-.652-.301-.841-.607L40.561 7.688c-.188-.306-.248-.674-.165-1.024.083-.35.301-.652.607-.841l1.225-.76c.151-.094.32-.156.495-.185.176-.028.356-.022.529.02.173.04.337.115.48.219.145.104.267.236.361.387l18.549 30.059-1.671 2.624zM21.557 66.543L12.9 56.255l2.85-2.4c.043-.036.1-.054.155-.049.056.005.109.032.145.075l8.383 9.962c.018.021.032.046.04.073.009.027.012.055.01.082-.003.028-.01.056-.024.08-.013.025-.03.047-.052.065l-2.85 2.4z"/>
    <path fill="#CDDDFC" stroke="#fff" d="M22.175 66.446L12.818 55.47c-.036-.043-.087-.07-.142-.078-.056-.007-.112.006-.158.038l-9.965 7.866c-.164.13-.297.295-.389.483-.091.189-.139.395-.139.605v3.2c0 .368.146.72.406.98s.612.406.98.406h16.3c.208 0 .412-.047.6-.136.186-.09.351-.22.481-.382l1.37-1.7c.04-.04.064-.094.066-.15.003-.057-.016-.113-.053-.156v0z"/>
    <path fill="#19548A" stroke="#fff" d="M56.396 17.804c.143.232.372.398.637.461s.545.019.777-.124l5.569-3.426c.232-.143.398-.372.461-.637s.018-.544-.125-.776c-.142-.233-.372-.398-.637-.461-.265-.064-.544-.019-.776.124l-5.569 3.426c-.232.143-.398.372-.46.637-.064.265-.02.544.123.776v0zM70.207 24.63l-8.164-.793c-.134-.013-.27 0-.399.04-.129.039-.25.103-.353.189-.104.085-.19.19-.254.31-.064.119-.103.25-.117.383-.013.135 0 .27.04.4.04.129.104.249.19.353.085.104.19.19.31.254.118.063.249.103.383.116l8.164.793h.1c.266.003.522-.098.715-.28.193-.182.308-.432.32-.697.014-.265-.076-.525-.25-.725-.175-.2-.42-.325-.685-.348v.005zM52.228 10.629c.126.05.26.073.395.07.135-.002.268-.032.392-.086.123-.054.235-.133.328-.23.093-.098.166-.213.215-.339L56.531 2.4c.049-.126.073-.26.07-.395-.003-.135-.033-.268-.087-.391-.054-.124-.132-.235-.23-.329-.097-.093-.212-.166-.338-.215-.126-.049-.26-.073-.395-.07-.135.003-.268.033-.391.087-.124.054-.235.132-.328.23-.094.097-.167.212-.216.338L51.643 9.3c-.099.254-.092.536.017.786.11.249.314.444.568.543v0zM44.972 4.967c-.332-.537-.864-.92-1.479-1.066-.615-.146-1.262-.041-1.8.29l-1.229.758c-.538.332-.922.864-1.067 1.479-.146.615-.042 1.262.29 1.8l.707 1.145-16.155 20-3.412 2.1c-.232.143-.398.372-.46.638-.063.265-.018.544.125.776.143.232.372.398.638.46.265.063.544.018.776-.125l2.687-1.658 5.236 8.486c-.762-.05-1.522.11-2.2.46l-.029.021c-.092.049-.184.1-.273.155l-3.072 1.9c-.743.466-1.365 1.102-1.813 1.857l-.758 1.143-.558.839h-.015l-.025-.012c-.043-.019-.086-.041-.127-.064l-.026-.014c-.046-.027-.09-.056-.132-.088l-.026-.02c-.038-.03-.076-.062-.112-.1l-.013-.012c-.039-.038-.075-.078-.11-.12l-.022-.028c-.036-.044-.07-.089-.1-.136l-4.44-7.2c-.103-.167-.172-.352-.204-.546-.03-.194-.024-.391.021-.582.046-.191.128-.371.243-.53.114-.16.26-.294.426-.397l1.329-.82c.232-.143.398-.372.46-.638.063-.265.018-.544-.125-.776-.143-.232-.372-.398-.638-.46-.265-.063-.544-.018-.776.125l-1.329.82c-.656.405-1.162 1.012-1.442 1.73-.28.717-.32 1.506-.112 2.248l-.988.61c-.635.393-1.089 1.022-1.26 1.75-.173.726-.05 1.492.342 2.128l2.507 4.064c.192.318.446.594.746.813.3.218.64.375 1.002.461.215.051.434.077.655.077.52 0 1.031-.146 1.474-.421l.99-.611c.206.187.433.35.676.484l-2.852 4.3-.673.459c-.217-.11-.462-.154-.704-.126-.242.028-.47.126-.657.283l-1.77 1.49c-.206-.132-.447-.2-.692-.196-.245.003-.483.079-.685.217-.02.014-.04.028-.058.043l-9.966 7.86c-.287.225-.519.513-.678.841-.159.329-.241.69-.24 1.054v3.2c0 .64.255 1.254.708 1.706.452.453 1.066.707 1.706.708h16.3c.361.001.718-.079 1.044-.235.326-.156.612-.383.838-.665l1.352-1.682c.113-.13.198-.281.25-.446.052-.164.069-.337.05-.508l1.821-1.532c.175-.147.305-.339.377-.555l4.192.859c.062.013.125.02.188.021h.367c1.055.054 2.104-.199 3.018-.728l4.223-2.515c.071 0 .141.007.211.007.616.001 1.22-.168 1.745-.489l3.393-2.074c.51-.31.927-.752 1.21-1.278.281-.527.418-1.119.394-1.715-.023-.597-.206-1.176-.529-1.679-.322-.502-.773-.91-1.306-1.179.238-.454.37-.956.387-1.468.016-.513-.085-1.022-.294-1.49-.21-.468-.523-.882-.916-1.212-.393-.329-.856-.565-1.353-.689.185-.84.042-1.72-.4-2.46-.44-.739-1.148-1.282-1.976-1.517.116-.44.141-.9.075-1.35-.066-.45-.223-.883-.46-1.271-.128-.209-.278-.403-.448-.58l20.357-4.431.707 1.145c.332.538.864.921 1.479 1.067.614.146 1.262.041 1.8-.29l1.229-.758c.538-.332.922-.864 1.067-1.479.146-.615.04-1.262-.291-1.8L44.972 4.967zM17.231 46.531c-.172.106-.38.14-.577.093-.197-.047-.368-.17-.474-.342l-2.507-4.064c-.106-.173-.14-.38-.093-.577.047-.197.17-.367.342-.474l.872-.538 3.306 5.368-.869.534zM20 67.81c-.034.042-.076.076-.125.1-.048.022-.101.034-.155.034H3.414c-.095 0-.187-.038-.254-.105s-.105-.159-.105-.254v-3.2c0-.054.012-.108.035-.157.024-.049.058-.091.101-.125l9.347-7.378 8.424 9.882L20 67.81zm2.089-3.054l-7.39-8.669 1.094-.921 7.334 8.716-1.038.874zm10.07-1.987c-.672.366-1.44.517-2.2.433l-5.264-1.079c-.122-.025-.248-.028-.372-.008l-6.461-7.677.585-.4.029-.022c.022-.017.044-.033.064-.051l.029-.028c.021-.019.04-.039.059-.06l.022-.025c.023-.028.045-.056.065-.086l.006-.008v-.015l5.433-8.183.034-.054c.277-.476.666-.877 1.134-1.167l3.072-1.9c.057-.035.115-.067.173-.1l.079-.037c.026-.012.062-.028.093-.04s.072-.028.109-.04l.057-.019c.045-.014.09-.027.136-.038.164-.04.331-.06.5-.061h.011c.049 0 .1 0 .147.005h.047c.043 0 .086.009.129.015l.076.014c.065.012.13.028.194.047l.074.021.1.036c.036.012.051.019.075.03s.063.028.094.044l.069.036c.031.017.062.034.093.053l.062.04c.03.02.061.041.09.063.029.022.035.028.052.042.017.014.06.048.089.074.142.127.264.274.364.436l.075.124 1.1 1.787 1.375 2.243.349.571c.033.053.06.11.081.168.065.179.075.373.029.557-.033.136-.093.264-.176.377-.083.112-.187.207-.307.279l-.618.378c-.042.025-.086.048-.131.067l-.029.012c-.044.018-.089.033-.135.045h-.017c-.042.01-.085.017-.128.022h-.025c-.046.003-.092.003-.138 0h-.026c-.046-.003-.092-.009-.138-.018-.048-.01-.096-.024-.142-.041h-.012c-.096-.037-.186-.089-.266-.154v0c-.04-.032-.077-.068-.111-.106l-.009-.01c-.032-.037-.061-.076-.087-.118L30.8 47.575c-.187-.308-.434-.575-.726-.787-.292-.211-.623-.363-.974-.445-.363-.087-.74-.1-1.108-.04-.368.06-.72.194-1.037.392-.129.08-.238.187-.32.314-.083.127-.136.27-.157.42-.012.088-.026.174-.042.259-.012.062-.025.124-.039.185 0 .02-.009.041-.013.062-.018.077-.038.153-.06.228v.009c-.11.385-.273.752-.484 1.092-.414.645-.977 1.182-1.64 1.567-.115.07-.216.162-.295.271-.08.109-.138.232-.17.363-.032.131-.037.268-.017.4.02.134.067.262.137.377.07.116.163.216.271.296.11.08.233.137.364.17.131.031.267.037.4.016.134-.02.262-.067.377-.137.481-.291.928-.635 1.333-1.026l4.29 6.766c.386.595.915 1.083 1.539 1.422.623.338 1.32.515 2.03.515.075 0 .15 0 .225-.008.029.054.059.106.091.159.12.195.259.378.415.545l-3.031 1.809zm.872-7.553c.017.048.036.1.056.143l.007.017c.018.043.037.085.057.127 0 .009.008.019.013.029.019.04.04.079.06.118l.018.035c.027.05.056.1.086.149.051.085.108.165.165.244l.064.082c.038.048.077.095.117.141l.086.1c.03.035.046.045.069.068.083.083.17.161.261.235l.028.022c.177.14.367.262.568.364-.185.349-.308.727-.363 1.118-.34-.02-.672-.12-.967-.29-.296-.172-.547-.41-.733-.696l-4.723-7.45c.222-.462.39-.948.5-1.449.074-.004.148.002.22.019.088.02.17.057.244.11.073.052.135.119.182.195l1.024 1.674v.007c.05.082.105.161.163.238.043.056.089.109.135.161.016.018.03.038.047.056l.007.027c.016.071.034.142.055.212l.018.061c.025.079.052.158.083.235 0 .008.006.015.01.023.028.071.06.14.094.208l.029.059c.038.075.079.149.122.222.462.759 1.205 1.305 2.067 1.518-.135.622-.091 1.27.126 1.868h.005zm.655-12.227l.345-.211c.302-.185.665-.242 1.01-.159.344.083.64.3.826.602.184.302.241.665.158 1.009-.083.344-.299.641-.601.826l-.343.21-1.016-1.657-.379-.62zm7.652 12.342c.25.06.476.194.65.383.175.189.289.425.329.68.04.253.003.513-.105.747-.108.233-.283.429-.502.563l-3.393 2.074c-.27.165-.59.225-.9.17l-.054-.011-.028-.005c-.24-.057-.46-.182-.631-.36-.172-.179-.289-.402-.337-.645v-.012c-.039-.206-.028-.418.032-.618.06-.201.167-.384.313-.535l.024-.024.046-.042.049-.041.037-.029c.031-.022.061-.044.094-.064l.674-.412c.12-.055.236-.117.349-.185l2.6-1.587c.24-.09.503-.106.753-.047v0zm-2.363-4.5c.309-.147.662-.17.988-.065.325.106.597.333.76.634.163.3.205.652.116.983-.089.33-.301.614-.593.792l-.611.374c-.12.056-.238.118-.352.187L36.7 55.308c-.233.091-.488.115-.734.068-.246-.046-.475-.16-.659-.33v0c-.029-.027-.056-.054-.082-.083l-.02-.025-.057-.069c-.019-.024-.049-.068-.071-.1-.022-.032-.043-.075-.062-.113L35 54.613c-.012-.026-.024-.053-.034-.08-.01-.027-.01-.028-.014-.043l-.024-.078-.011-.044-.016-.08-.006-.042c0-.028-.006-.056-.008-.083-.002-.027 0-.027 0-.04v-.086-.038c0-.029 0-.058.008-.087v-.037c0-.012.009-.051.015-.077.06-.283.21-.54.428-.73l.026-.026.038-.033.1-.054 3.334-2.038.139-.091v.005zm-1.6-4.1c.244.06.467.187.642.367.174.18.295.407.347.652.053.246.034.502-.052.738-.087.236-.238.442-.437.596-.034.019-.068.038-.1.058l-2.574 1.573.025-.021c.049-.039.1-.079.145-.12.029-.026.056-.053.084-.08.028-.027.084-.082.123-.125l.079-.089c.026-.03.073-.088.108-.133.035-.045.048-.064.071-.1.023-.036.064-.094.094-.143l.061-.1c.029-.051.056-.1.082-.157.017-.034.034-.066.049-.1.027-.059.05-.12.074-.182.011-.029.024-.058.034-.088.032-.093.06-.186.083-.282.023-.096.039-.183.052-.275 0-.029.006-.059.01-.088.008-.063.013-.126.017-.189v-.1-.175c0-.035 0-.07-.005-.1 0-.059-.011-.118-.019-.176 0-.033-.008-.065-.013-.1-.011-.066-.025-.132-.041-.2l-.015-.071c-.024-.088-.05-.175-.082-.262-.006-.017-.014-.033-.021-.05-.022-.058-.044-.116-.071-.173l.236-.145c.15-.093.318-.155.493-.183.175-.027.353-.02.525.023h-.004zM61.808 36.35c-.02.083-.074.155-.147.2l-1.229.759c-.074.046-.163.06-.248.04-.085-.02-.158-.073-.204-.147L47.04 16.231c-.07-.115-.164-.215-.273-.293-.11-.08-.233-.136-.364-.167-.132-.031-.268-.036-.401-.014-.133.021-.26.069-.376.14-.114.07-.214.163-.293.272-.079.11-.135.234-.166.365-.032.131-.036.267-.015.4.022.134.07.261.14.376l11.09 17.973-23.874 5.2-6.324-10.252 15.353-19 1.24 2.011c.07.115.164.215.273.294.11.079.233.135.365.166.13.031.267.036.4.015.134-.022.261-.07.376-.14.115-.07.215-.164.294-.273.079-.11.135-.233.166-.365.031-.13.036-.267.015-.4-.022-.133-.07-.261-.14-.376l-3.091-5.009c-.023-.037-.038-.077-.045-.12-.007-.043-.005-.086.005-.128.01-.042.028-.082.053-.117.025-.035.057-.064.094-.087l1.229-.758c.037-.023.078-.038.12-.045.043-.007.086-.005.128.005.042.01.082.028.117.053.035.025.064.057.087.094l18.545 30.051c.023.037.038.077.045.12.007.043.005.086-.005.128z"/>
</svg>
