<svg xmlns="http://www.w3.org/2000/svg" width="69" height="61" fill="none" viewBox="0 0 69 61">
    <path fill="#CDDDFC" d="M14.028 25.188s-1.11 3.533 1.472 6.5c0 0 5.511-3.464 6 3.5 0 0 5.314 1.323 5 5.634 0 0 3.802-1.222 4.5 3.071 0 0 4.5 1.295 4 6.295l-1.5 3 2.885 3s2.568 1.079 3.615-4c0 0 5.175.643 5-5.5 0 0 5.698 1.061 5-4 0 0 5-1.866 1-5.5l-8-7s-4.385-4.32-5-4c-.615.32-7 6.5-7 6.5s-7.5-.5-6-8.5l3.5-4.5s.118-5.182-7.735-3l-5.265 7-1.472 1.5z"/>
    <path fill="#CDDDFC" d="M30.5 27.688c-1 .4-1.5-.833-1.5-2 3.167-3 8.337-10.145 11.5-11.5 3.5-1.5 11 5 10 4.5-6.33-3.165-9.667-3.167-11-1-4 3.5-7 9.2-9 10z"/>
    <path fill="#CCDCFF" d="M2.318 23.404L19.945 4.817S24.76 1.45 25.04 7.75L8.217 26.493s-7.418 1.728-5.9-3.089zM47.17 3.002s-4.328.472-2.426 5.672l16.563 17.191s6.056 3.002 6.003 0c1.1-.244.768-2.46.768-2.46L47.17 3.001z"/>
    <mask id="voq01zai5a" fill="#fff">
        <path d="M36.093 59.93c-1.134-.28-1.815-.768-3.892-2.863-1.082-1.082-2.024-1.954-2.094-1.954-.087 0-.384.244-.68.558-.63.646-1.502.977-2.566.977-1.17 0-1.798-.261-2.688-1.082-.838-.768-1.291-1.588-1.466-2.652-.087-.559-.122-.594-.541-.594-1.24 0-3.09-1.57-3.508-2.932-.122-.401-.227-.855-.227-.994 0-.192-.105-.262-.401-.262-.227 0-.733-.105-1.152-.245-1.396-.453-2.775-2.251-2.775-3.612 0-.42-.035-.437-.838-.594-2.129-.418-3.682-2.495-3.438-4.607.122-1.047.524-1.798 1.484-2.74l.803-.786-.524-1.204c-.942-2.164-1.658-5.183-1.658-7.033 0-.436-.052-.803-.105-.803-.052 0-.314.122-.558.28-1.431.872-3.77 1.099-5.306.54-1.082-.4-1.675-.785-2.373-1.553-1.763-1.902-2.095-4.851-.82-7.365.383-.768 1.134-1.57 6.719-7.26 1.309-1.344 3.996-4.119 5.968-6.143 2.286-2.356 3.84-3.874 4.311-4.154 2.67-1.605 6.37-.872 8.08 1.588.838 1.205 1.03 1.903 1.03 3.683 0 1.745-.244 2.653-.96 3.63-.192.262-.331.489-.296.524.035.034.61.174 1.291.314 2.775.576 5.637 2.111 7.435 3.979l.471.489.855-.786c1.763-1.623 4.276-2.984 6.475-3.473.558-.122 1.012-.244 1.012-.262 0-.017-.157-.314-.331-.645-.978-1.763-1.048-4.084-.175-5.917.61-1.274 1.483-2.181 2.67-2.74C47.123.4 48.973.382 50.753 1.22c.907.436.803.331 9.023 8.76 8.796 9.024 8.534 8.727 9.005 10.472.768 2.95-.54 6.021-3.054 7.208-1.815.855-3.717.855-5.393.018l-.82-.402-.07.35c-.035.191-.105.732-.157 1.186-.174 1.64-.82 3.98-1.605 5.812l-.402.924.332.96c.436 1.222.453 2.461.052 3.77-.384 1.257-.593 1.623-1.274 2.374-.68.75-1.466 1.221-2.373 1.448l-.664.157v1.013c0 1.797-.698 3.438-1.797 4.153-.803.524-1.536.716-2.758.716h-1.134l-.14.994c-.261 1.78-1.117 3.177-2.269 3.665-.279.123-.872.245-1.326.297l-.82.087-.175.89c-.401 2.008-1.797 3.351-3.996 3.857-1.03.245-1.868.245-2.845 0zm3.159-2.357c.366-.174.803-.558 1.047-.907.401-.559.419-.68.419-1.955 0-1.92.314-2.234 1.867-1.867 1.449.331 2.269-.053 2.688-1.31.157-.47.122-1.692-.087-3.018-.07-.437-.035-.594.227-.873.418-.436 1.012-.436 1.972 0 1.291.61 2.687.401 3.316-.471.523-.733.663-1.763.383-2.897-.314-1.257-.296-1.571.07-1.972.262-.28.437-.332 1.257-.332 1.03 0 1.78-.244 2.321-.733.873-.82 1.222-2.478.803-3.91l-.227-.785-8.045-6.09-8.046-6.091-3.02 3.001c-1.937 1.92-3.245 3.124-3.647 3.316-.855.42-2.46.524-3.525.21-1.012-.297-2.164-1.327-2.635-2.356-.28-.611-.332-.96-.332-2.06 0-1.448.244-2.164 1.012-3.002.21-.226 1.57-1.71 3.037-3.28 1.448-1.571 2.775-3.002 2.932-3.177l.28-.314-.769-.768c-1.536-1.57-3.612-2.67-5.916-3.141-1.327-.28-3.369-.35-3.456-.14-.017.07-1.99 2.13-4.38 4.573-2.374 2.443-4.835 4.974-5.463 5.637l-1.134 1.186-.088 1.117c-.174 2.112.315 5.184 1.187 7.453l.436 1.117.629-.49c2.53-1.936 6.126-.348 6.562 2.933.087.628.105.646.593.646 1.623 0 3.648 2.111 3.648 3.787 0 .366.035.401.593.401 1.728 0 3.473 1.745 3.805 3.805.07.436.14.523.419.523 1.36 0 3.21 1.536 3.647 3.037.454 1.553.053 2.95-1.221 4.293l-.681.716 1.972 1.99c1.082 1.099 2.147 2.076 2.373 2.198 1.013.524 2.112.524 3.177 0zm-11.798-3.071c.593-.42 3.927-3.892 4.154-4.346.349-.68.14-1.256-.82-2.146-1.117-1.048-1.466-.96-3.16.767-2.792 2.898-2.931 3.055-2.931 3.7 0 .524.087.664.82 1.397.907.872 1.379 1.03 1.937.628zm-4.31-4.328c.156-.088 1.221-1.117 2.338-2.287 1.972-2.042 2.042-2.146 2.042-2.705 0-.523-.087-.663-.82-1.396-.838-.838-1.31-1.012-1.833-.68-.122.07-1.1 1.03-2.199 2.129-2.13 2.129-2.426 2.6-2.13 3.316.088.226.507.715.909 1.116.785.716 1.134.838 1.692.507zm-2.217-6.318c1.17-1.204 2.164-2.339 2.216-2.513.14-.576-.087-1.065-.837-1.833-.629-.628-.803-.733-1.274-.733-.49 0-.646.105-1.885 1.361-2.6 2.636-3.072 3.194-3.072 3.718 0 .558.663 1.518 1.396 2.007.838.576 1.082.419 3.456-2.007zm-4.241-4.363c2.164-2.2 2.181-2.217 2.181-2.845 0-.541-.087-.716-.575-1.274-.786-.89-1.257-1.117-1.868-.925-.54.175-4.206 3.944-4.502 4.625-.158.349-.14.506.087.995.384.872 1.291 1.64 1.954 1.64.49 0 .646-.122 2.723-2.216zm39.53-7.435c.61-1.832.925-3.648.96-5.55l.017-1.5-6.004-6.179-6.003-6.178-.978.07c-2.042.157-3.961.89-5.811 2.251-.733.541-2.391 2.217-5.428 5.48-2.408 2.583-4.485 4.87-4.625 5.061-.157.227-.244.629-.244 1.048 0 1.745 2.06 3.036 3.473 2.181.262-.157 1.955-1.797 3.77-3.63 2.914-2.967 3.35-3.35 3.734-3.35.35 0 1.1.505 3.63 2.425 12.566 9.53 12.828 9.721 12.933 9.53.035-.14.314-.874.575-1.659zm8.446-6.248c1.484-.733 2.514-2.548 2.34-4.119-.14-1.239-.577-1.85-3.09-4.432-4.31-4.433-7.382-7.575-9.494-9.774-4.066-4.188-4.224-4.328-4.904-4.642-1.536-.68-3.299-.192-4.468 1.239-1.065 1.309-1.274 2.897-.576 4.346.192.401 1.117 1.466 2.478 2.862 1.187 1.222 2.234 2.286 2.304 2.373.262.297 9.354 9.651 10.471 10.786 1.187 1.204 1.71 1.536 2.636 1.728.785.174 1.396.07 2.303-.367zM7.49 25.322c.558-.262 1.623-1.274 5.305-5.062 2.53-2.6 5.742-5.899 7.12-7.312 5.027-5.149 5.01-5.131 5.01-6.842 0-.855-.07-1.169-.367-1.762-.803-1.553-2.53-2.566-3.997-2.374-1.134.157-1.727.576-3.595 2.496-.977 1.012-3.77 3.892-6.195 6.388-8.046 8.272-8.116 8.342-8.395 9.005-.646 1.466-.436 2.95.593 4.223 1.222 1.466 3.002 1.955 4.52 1.24z"/>
    </mask>
    <path fill="#19548A" stroke="#EFFBFC" d="M36.093 59.93c-1.134-.28-1.815-.768-3.892-2.863-1.082-1.082-2.024-1.954-2.094-1.954-.087 0-.384.244-.68.558-.63.646-1.502.977-2.566.977-1.17 0-1.798-.261-2.688-1.082-.838-.768-1.291-1.588-1.466-2.652-.087-.559-.122-.594-.541-.594-1.24 0-3.09-1.57-3.508-2.932-.122-.401-.227-.855-.227-.994 0-.192-.105-.262-.401-.262-.227 0-.733-.105-1.152-.245-1.396-.453-2.775-2.251-2.775-3.612 0-.42-.035-.437-.838-.594-2.129-.418-3.682-2.495-3.438-4.607.122-1.047.524-1.798 1.484-2.74l.803-.786-.524-1.204c-.942-2.164-1.658-5.183-1.658-7.033 0-.436-.052-.803-.105-.803-.052 0-.314.122-.558.28-1.431.872-3.77 1.099-5.306.54-1.082-.4-1.675-.785-2.373-1.553-1.763-1.902-2.095-4.851-.82-7.365.383-.768 1.134-1.57 6.719-7.26 1.309-1.344 3.996-4.119 5.968-6.143 2.286-2.356 3.84-3.874 4.311-4.154 2.67-1.605 6.37-.872 8.08 1.588.838 1.205 1.03 1.903 1.03 3.683 0 1.745-.244 2.653-.96 3.63-.192.262-.331.489-.296.524.035.034.61.174 1.291.314 2.775.576 5.637 2.111 7.435 3.979l.471.489.855-.786c1.763-1.623 4.276-2.984 6.475-3.473.558-.122 1.012-.244 1.012-.262 0-.017-.157-.314-.331-.645-.978-1.763-1.048-4.084-.175-5.917.61-1.274 1.483-2.181 2.67-2.74C47.123.4 48.973.382 50.753 1.22c.907.436.803.331 9.023 8.76 8.796 9.024 8.534 8.727 9.005 10.472.768 2.95-.54 6.021-3.054 7.208-1.815.855-3.717.855-5.393.018l-.82-.402-.07.35c-.035.191-.105.732-.157 1.186-.174 1.64-.82 3.98-1.605 5.812l-.402.924.332.96c.436 1.222.453 2.461.052 3.77-.384 1.257-.593 1.623-1.274 2.374-.68.75-1.466 1.221-2.373 1.448l-.664.157v1.013c0 1.797-.698 3.438-1.797 4.153-.803.524-1.536.716-2.758.716h-1.134l-.14.994c-.261 1.78-1.117 3.177-2.269 3.665-.279.123-.872.245-1.326.297l-.82.087-.175.89c-.401 2.008-1.797 3.351-3.996 3.857-1.03.245-1.868.245-2.845 0zm3.159-2.357c.366-.174.803-.558 1.047-.907.401-.559.419-.68.419-1.955 0-1.92.314-2.234 1.867-1.867 1.449.331 2.269-.053 2.688-1.31.157-.47.122-1.692-.087-3.018-.07-.437-.035-.594.227-.873.418-.436 1.012-.436 1.972 0 1.291.61 2.687.401 3.316-.471.523-.733.663-1.763.383-2.897-.314-1.257-.296-1.571.07-1.972.262-.28.437-.332 1.257-.332 1.03 0 1.78-.244 2.321-.733.873-.82 1.222-2.478.803-3.91l-.227-.785-8.045-6.09-8.046-6.091-3.02 3.001c-1.937 1.92-3.245 3.124-3.647 3.316-.855.42-2.46.524-3.525.21-1.012-.297-2.164-1.327-2.635-2.356-.28-.611-.332-.96-.332-2.06 0-1.448.244-2.164 1.012-3.002.21-.226 1.57-1.71 3.037-3.28 1.448-1.571 2.775-3.002 2.932-3.177l.28-.314-.769-.768c-1.536-1.57-3.612-2.67-5.916-3.141-1.327-.28-3.369-.35-3.456-.14-.017.07-1.99 2.13-4.38 4.573-2.374 2.443-4.835 4.974-5.463 5.637l-1.134 1.186-.088 1.117c-.174 2.112.315 5.184 1.187 7.453l.436 1.117.629-.49c2.53-1.936 6.126-.348 6.562 2.933.087.628.105.646.593.646 1.623 0 3.648 2.111 3.648 3.787 0 .366.035.401.593.401 1.728 0 3.473 1.745 3.805 3.805.07.436.14.523.419.523 1.36 0 3.21 1.536 3.647 3.037.454 1.553.053 2.95-1.221 4.293l-.681.716 1.972 1.99c1.082 1.099 2.147 2.076 2.373 2.198 1.013.524 2.112.524 3.177 0zm-11.798-3.071c.593-.42 3.927-3.892 4.154-4.346.349-.68.14-1.256-.82-2.146-1.117-1.048-1.466-.96-3.16.767-2.792 2.898-2.931 3.055-2.931 3.7 0 .524.087.664.82 1.397.907.872 1.379 1.03 1.937.628zm-4.31-4.328c.156-.088 1.221-1.117 2.338-2.287 1.972-2.042 2.042-2.146 2.042-2.705 0-.523-.087-.663-.82-1.396-.838-.838-1.31-1.012-1.833-.68-.122.07-1.1 1.03-2.199 2.129-2.13 2.129-2.426 2.6-2.13 3.316.088.226.507.715.909 1.116.785.716 1.134.838 1.692.507zm-2.217-6.318c1.17-1.204 2.164-2.339 2.216-2.513.14-.576-.087-1.065-.837-1.833-.629-.628-.803-.733-1.274-.733-.49 0-.646.105-1.885 1.361-2.6 2.636-3.072 3.194-3.072 3.718 0 .558.663 1.518 1.396 2.007.838.576 1.082.419 3.456-2.007zm-4.241-4.363c2.164-2.2 2.181-2.217 2.181-2.845 0-.541-.087-.716-.575-1.274-.786-.89-1.257-1.117-1.868-.925-.54.175-4.206 3.944-4.502 4.625-.158.349-.14.506.087.995.384.872 1.291 1.64 1.954 1.64.49 0 .646-.122 2.723-2.216zm39.53-7.435c.61-1.832.925-3.648.96-5.55l.017-1.5-6.004-6.179-6.003-6.178-.978.07c-2.042.157-3.961.89-5.811 2.251-.733.541-2.391 2.217-5.428 5.48-2.408 2.583-4.485 4.87-4.625 5.061-.157.227-.244.629-.244 1.048 0 1.745 2.06 3.036 3.473 2.181.262-.157 1.955-1.797 3.77-3.63 2.914-2.967 3.35-3.35 3.734-3.35.35 0 1.1.505 3.63 2.425 12.566 9.53 12.828 9.721 12.933 9.53.035-.14.314-.874.575-1.659zm8.446-6.248c1.484-.733 2.514-2.548 2.34-4.119-.14-1.239-.577-1.85-3.09-4.432-4.31-4.433-7.382-7.575-9.494-9.774-4.066-4.188-4.224-4.328-4.904-4.642-1.536-.68-3.299-.192-4.468 1.239-1.065 1.309-1.274 2.897-.576 4.346.192.401 1.117 1.466 2.478 2.862 1.187 1.222 2.234 2.286 2.304 2.373.262.297 9.354 9.651 10.471 10.786 1.187 1.204 1.71 1.536 2.636 1.728.785.174 1.396.07 2.303-.367zM7.49 25.322c.558-.262 1.623-1.274 5.305-5.062 2.53-2.6 5.742-5.899 7.12-7.312 5.027-5.149 5.01-5.131 5.01-6.842 0-.855-.07-1.169-.367-1.762-.803-1.553-2.53-2.566-3.997-2.374-1.134.157-1.727.576-3.595 2.496-.977 1.012-3.77 3.892-6.195 6.388-8.046 8.272-8.116 8.342-8.395 9.005-.646 1.466-.436 2.95.593 4.223 1.222 1.466 3.002 1.955 4.52 1.24z" mask="url(#voq01zai5a)"/>
    <path fill="#CDDDFC" d="M15 41.188c-2 1.6-3.167-.667-3.5-2 2.5 3 5.5-3.5 7.5-3-.333.666-2 3.4-4 5zM19.5 45.188c-2 1.6-3.167-.667-3.5-2 2.5 2 5-2 7-2-.333.666-1.5 2.4-3.5 4zM24 49.704c-1.714 1.407-2.714-.586-3-1.758 2 1.242 5.5-3.758 6.5-2.758-.286.586-1.786 3.11-3.5 4.516zM28 53.704c-1.714 1.407-2.714-.586-3-1.758 2 1.242 5-2.758 6.5-2.258-.286.586-1.786 2.61-3.5 4.016z"/>
</svg>
