<svg xmlns="http://www.w3.org/2000/svg" width="58" height="70" fill="none" viewBox="0 0 58 70">
    <path fill="#CDDDFC" d="M20.47 43.425l-10.31 3.19c-.334.103-.66.22-.979.346-2.507 1.059-4.641 2.842-6.128 5.121-1.487 2.28-2.26 4.951-2.219 7.672v8.75h56.462v-7.01c0-7.282-3.2-12.486-8.347-14.532-.32-.128-.646-.244-.978-.348L37.66 43.426"/>
    <path fill="#19548A" d="M43.094 30.021c-.121-.014-.233-.073-.315-.164-.08-.091-.126-.21-.126-.332 0-.122.045-.24.127-.332.08-.091.193-.15.314-.165.454.015.907-.062 1.33-.226.423-.165.81-.414 1.134-.732.325-.317.581-.697.755-1.117.174-.42.261-.87.256-1.325 0-.328-.032-.656-.093-.979-.126-.556-.382-1.075-.745-1.515-.364-.44-.826-.79-1.349-1.018-.068-.022-.13-.058-.184-.106-.053-.048-.095-.106-.124-.172-.028-.066-.043-.136-.041-.208 0-.072.017-.142.048-.206.031-.065.075-.122.13-.168.055-.046.119-.08.188-.1.069-.018.14-.022.212-.011.07.01.138.037.197.076.665.297 1.25.745 1.71 1.31.458.563.778 1.228.933 1.939.073.382.11.77.111 1.16.008.586-.103 1.167-.325 1.708-.223.542-.553 1.032-.97 1.443-.418.41-.915.732-1.46.945-.545.213-1.128.314-1.713.297v-.002zM14.983 30.02c-.586.018-1.169-.083-1.715-.297-.545-.213-1.042-.536-1.46-.947-.417-.411-.747-.903-.97-1.445-.222-.543-.332-1.125-.323-1.71 0-.39.037-.779.11-1.162.155-.71.475-1.374.934-1.939.459-.564 1.044-1.012 1.708-1.308.115-.037.24-.031.35.017.112.048.202.134.254.243.052.11.063.233.03.35-.032.116-.106.217-.207.284-.523.23-.986.579-1.35 1.02-.363.441-.618.962-.744 1.52-.06.322-.09.65-.09.979-.006.454.081.904.255 1.324.174.42.431.8.756 1.117.324.318.71.567 1.133.732.424.164.876.241 1.33.227.07-.009.142-.002.209.019.067.021.13.056.182.103.053.047.095.105.124.169.03.065.044.134.044.205 0 .07-.015.14-.044.205-.029.064-.07.122-.124.169-.053.047-.115.082-.182.103-.067.021-.139.028-.209.02v.002z"/>
    <path fill="#6FA8AC" d="M37.054 40.453l.6 2.972-8.594 4.4-8.594-4.4.7-2.842"/>
    <path fill="#19548A" d="M29.065 48.322c-.078-.001-.156-.02-.226-.056l-8.594-4.4c-.099-.051-.178-.134-.225-.236-.046-.102-.057-.216-.03-.325l.7-2.843c.008-.07.032-.137.069-.197.036-.06.085-.112.144-.152.058-.04.124-.067.193-.08.07-.012.141-.01.21.007.068.017.132.048.188.092.055.044.101.098.134.16.033.063.052.132.056.202.005.07-.006.141-.03.208l-.61 2.46 8.018 4.1 8.033-4.111-.529-2.6c-.01-.123.024-.245.097-.343.074-.098.18-.166.3-.19.12-.026.246-.005.352.056.106.062.186.16.224.276l.6 2.978c.021.106.007.216-.04.314-.047.097-.124.177-.22.226l-8.594 4.4c-.07.034-.148.051-.226.05l.006.004z"/>
    <path fill="#EEEFEE" d="M20.471 43.425l3.985 8.776 4.61-4.37-8.595-4.406z"/>
    <path fill="#19548A" d="M24.455 52.697c-.031 0-.063-.003-.094-.01-.077-.015-.15-.049-.212-.098s-.112-.112-.145-.184l-3.984-8.773c-.04-.094-.05-.198-.03-.298.02-.1.07-.191.145-.262.073-.07.167-.116.268-.132.1-.016.204 0 .295.044l8.594 4.404c.07.037.13.09.175.155.045.064.075.139.086.217.01.077.003.157-.022.232-.026.074-.068.142-.125.197l-4.61 4.367c-.092.088-.214.138-.342.139l.001.002zm-2.944-8.18l3.107 6.843 3.6-3.408-6.707-3.436z"/>
    <path fill="#EEEFEE" d="M37.66 43.425l-3.986 8.776-4.609-4.37 8.594-4.406z"/>
    <path fill="#19548A" d="M33.675 52.697c-.127 0-.25-.049-.342-.137l-4.609-4.372c-.056-.054-.099-.122-.124-.197-.026-.074-.033-.154-.022-.231.01-.078.04-.153.086-.217.045-.065.105-.118.174-.154l8.595-4.4c.092-.045.195-.06.296-.045.1.016.194.062.268.132.074.07.124.162.145.262.02.1.01.204-.03.297l-3.983 8.77c-.033.072-.082.135-.144.184-.062.05-.135.083-.213.099-.033.007-.066.01-.1.01h.003zm-3.76-4.745l3.6 3.407 3.107-6.843-6.707 3.436z"/>
    <path fill="#CDDDFC" d="M43.351 25.096l-.03 3.2c0 6.682-4.746 11.18-8.776 13.77-1.996 1.28-4.377 1.822-6.73 1.53 1.513-.18 2.967-.703 4.248-1.53 4.031-2.59 8.776-7.089 8.776-13.77l.02-2.462c.02.02.02.02 0-.01v-.016l-.001-.016c-.002-.005-.005-.01-.009-.014v-.03c-1.4-4.338-5.252-11.219-8.846-12.946 1.023-.227 1.648-.327 1.648-.327 3.922 1.2 7.595 7.347 9.094 12.022.041.144.119.275.225.38.106.105.237.18.381.22z"/>
    <path fill="#323C6B" d="M43.351 25.59c-.13 0-.257-.052-.35-.144-.094-.092-.147-.216-.15-.348v-.01c0-.098.03-.195.084-.277.055-.082.134-.147.225-.184.091-.038.192-.048.289-.029.097.02.186.067.256.137s.117.159.137.256c.019.097.009.198-.029.289-.038.091-.102.17-.184.224-.082.055-.179.084-.278.084v.002z"/>
    <path fill="#2C4264" d="M45 20.895l-.5 3.436c-.026.22-.131.424-.297.572-.166.148-.381.229-.604.228-.084.002-.168-.012-.248-.04-.144-.04-.275-.116-.381-.221-.106-.105-.184-.236-.225-.38-1.5-4.675-5.172-10.82-9.094-12.022 0 0-11.775 1.946-17.086 7.744-.562.686-.935 1.508-1.082 2.384-.07.546-.104 1.096-.1 1.648-.002.183-.06.362-.168.511-.107.15-.258.262-.432.323-.097.04-.202.06-.308.06h-.05c-.207 0-.408-.07-.569-.2-.161-.131-.272-.313-.315-.515l-.268-1.41c-.79-3.911-.6-7.957.556-11.776C15.583 5.678 19.583.248 28.876.506 39.43.205 43.67 7.266 44.9 13.511c.45 2.44.484 4.937.1 7.387v-.003z"/>
    <path fill="#19548A" d="M43.6 25.634c-.143.002-.286-.022-.42-.07-.217-.065-.413-.183-.572-.343-.158-.16-.274-.359-.336-.576-1.536-4.787-5.079-10.466-8.654-11.655-1.225.221-11.829 2.27-16.685 7.57-.491.607-.82 1.33-.956 2.1-.069.526-.102 1.056-.1 1.587-.002.287-.093.565-.26.798-.166.232-.4.408-.67.502-.15.06-.31.09-.47.087-.328.007-.648-.1-.907-.301-.258-.202-.439-.487-.512-.806l-.27-1.422c-.802-3.99-.605-8.116.571-12.013C15.742 3.516 20.98-.2 28.887.01c12.468-.353 15.68 9.258 16.5 13.4.46 2.494.494 5.048.1 7.553l-.5 3.436c-.04.34-.205.654-.463.881-.257.228-.589.353-.932.352l.008.003zm-9.948-13.652c.05 0 .099.008.146.023 4.444 1.36 8.07 8.129 9.422 12.344.017.064.05.123.096.17.046.047.104.081.167.1l.117.021c.101.002.199-.035.275-.101.075-.067.124-.16.135-.26l.5-3.451c.377-2.395.345-4.836-.094-7.22C43.65 9.707 40.586.658 28.896 1 21.445.8 16.54 4.29 14.308 11.387c-1.127 3.74-1.313 7.702-.542 11.532l.268 1.41c.02.09.072.17.145.227.072.057.163.087.255.084.053.004.106-.002.156-.017.087-.025.163-.078.217-.15.054-.072.083-.16.083-.25-.005-.568.029-1.136.1-1.7.164-.97.58-1.879 1.206-2.637 5.366-5.858 16.885-7.82 17.374-7.9.027-.003.054-.003.081 0v-.004zM10.981 68.999c-.132 0-.26-.053-.353-.147-.094-.094-.147-.22-.147-.353v-10.98c.015-.121.073-.233.165-.314.091-.082.21-.127.332-.127.122 0 .24.045.332.127.091.08.15.193.164.315v10.982c0 .131-.053.256-.145.349-.092.093-.217.146-.348.148zM47.15 68.999c-.133 0-.26-.053-.354-.147-.094-.094-.147-.22-.147-.353v-10.98c.015-.121.073-.233.165-.314.091-.082.21-.127.332-.127.122 0 .24.045.332.127.091.08.15.193.164.315v10.982c0 .131-.053.256-.145.349-.092.093-.217.146-.348.148z"/>
    <path fill="#6FA8AC" d="M30.488 52.965l1.726-2.146-3.152-2.992-3.152 2.992 1.723 2.143 2.855.003z"/>
    <path fill="#19548A" d="M30.492 53.462h-2.856c-.074 0-.147-.017-.214-.05-.066-.031-.125-.078-.172-.136l-1.723-2.147c-.077-.097-.115-.22-.107-.343.008-.124.062-.24.151-.327l3.152-2.992c.093-.088.216-.136.343-.136.127 0 .25.048.342.136l3.152 2.99c.09.086.144.202.152.326.008.124-.03.247-.108.344l-1.725 2.145c-.046.058-.105.105-.172.138-.066.032-.14.049-.214.05v.002zm-2.618-.993h2.383l1.291-1.6-2.482-2.355-2.482 2.355 1.29 1.6z"/>
    <path fill="#6FA8AC" d="M30.488 52.965l1.726 12.306-3.152 2.879-3.152-2.879 1.723-12.309 2.855.003z"/>
    <path fill="#19548A" d="M29.066 68.647c-.124 0-.243-.047-.335-.13l-3.152-2.88c-.059-.054-.104-.122-.132-.198-.027-.075-.036-.157-.025-.236l1.722-12.312c.018-.12.078-.228.17-.307.092-.078.21-.12.33-.12h2.848c.12.002.234.045.324.123.09.079.149.187.166.304l1.73 12.312c.011.08.002.16-.025.236-.027.076-.072.144-.132.199l-3.152 2.881c-.092.084-.213.13-.338.13l.001-.002zm-2.625-3.565l2.625 2.4 2.624-2.4-1.632-11.62h-1.993l-1.624 11.62zM.496 51.084c-.087 0-.172-.024-.247-.068-.075-.044-.137-.107-.18-.182-.044-.076-.067-.161-.067-.248s.022-.173.065-.248c.08-.138.16-.273.244-.407.03-.063.075-.12.129-.165.054-.045.117-.079.185-.098.068-.02.139-.024.209-.014.07.01.136.035.196.073.06.038.11.088.15.147.038.059.064.125.075.195.011.07.008.14-.01.209-.019.068-.051.132-.096.187-.077.122-.152.246-.225.372-.044.075-.106.137-.181.18-.075.044-.16.067-.247.067zM2.448 48.565c-.126 0-.247-.048-.339-.136-.095-.09-.15-.214-.154-.345-.005-.13.043-.258.131-.355 1.617-1.747 3.602-3.113 5.812-4 .4-.157 2.26-.754 2.34-.779.064-.03.134-.046.205-.047.071 0 .142.014.207.042.065.029.123.07.171.124.048.053.083.115.105.183.021.068.028.14.02.21-.008.07-.032.139-.069.2-.037.06-.086.113-.145.153-.058.04-.125.068-.195.08-.529.17-1.97.636-2.275.758-2.073.83-3.936 2.112-5.454 3.75-.046.05-.1.089-.162.116-.062.027-.128.041-.195.043l-.003.003zM47.822 13.428c-.114-.001-.225-.042-.314-.115-.088-.072-.149-.173-.172-.286-.504-2.727-1.555-5.325-3.088-7.637-.046-.053-.08-.116-.1-.183-.021-.068-.027-.14-.018-.21.01-.07.033-.137.07-.197.038-.06.087-.111.145-.151.059-.04.125-.066.195-.079.07-.012.14-.01.21.008.068.018.132.05.187.093.056.044.1.1.133.162 1.608 2.422 2.71 5.143 3.24 8 .025.13-.002.263-.075.373-.074.11-.187.185-.316.212-.033.005-.066.007-.1.006l.003.004zM48.183 16.133c-.129 0-.252-.05-.345-.139-.093-.089-.149-.21-.155-.338 0-.14-.012-.28-.023-.418-.009-.13.035-.26.12-.36.087-.1.208-.161.34-.171.13-.01.26.034.36.12.099.085.16.207.171.338.011.15.018.3.025.452.005.131-.043.26-.133.356-.09.096-.213.154-.345.16h-.015zM29.058 44.17c-2.036.003-4.03-.583-5.742-1.688-4.1-2.672-8.994-7.3-8.994-14.188l-.03-3.213c0-.104.032-.206.092-.29.06-.086.146-.15.244-.184.077-.03.143-.08.19-.148.046-.068.07-.148.07-.23-.005-.568.029-1.136.1-1.7.164-.97.58-1.879 1.206-2.637 5.366-5.858 16.885-7.82 17.374-7.9.076-.013.154-.008.227.014 4.444 1.361 8.07 8.13 9.422 12.346.017.063.05.122.096.169.046.047.104.081.167.1.106.029.198.092.264.18.066.087.102.193.101.303l-.032 3.192c0 6.938-4.9 11.543-9 14.184-1.716 1.104-3.714 1.692-5.755 1.693v-.003zm-13.77-18.794l.027 2.918c0 6.448 4.645 10.821 8.538 13.36 1.554 1 3.364 1.532 5.212 1.532 1.849 0 3.658-.532 5.212-1.532 3.9-2.515 8.548-6.866 8.548-13.36l.027-2.881c-.28-.178-.487-.451-.58-.77-1.537-4.787-5.08-10.466-8.655-11.655-1.226.222-11.829 2.27-16.685 7.57-.491.607-.82 1.33-.956 2.1-.069.526-.102 1.056-.1 1.587-.001.222-.055.44-.158.637-.102.197-.25.367-.43.495z"/>
    <path fill="#19548A" d="M57.298 69H.833c-.132 0-.26-.053-.353-.147-.094-.094-.147-.22-.147-.353v-8.745c-.034-2.82.772-5.585 2.314-7.945C4.19 49.45 6.4 47.6 8.994 46.5c.334-.133.672-.252 1.014-.358l10.317-3.19c.065-.029.135-.044.206-.044.07 0 .14.015.206.044.064.03.122.072.169.125.047.053.082.116.103.184.02.067.027.139.018.209-.009.07-.032.138-.07.199-.036.06-.085.112-.144.152-.058.04-.125.067-.195.08l-10.316 3.188c-.318.1-.632.211-.94.334-2.412 1.027-4.464 2.747-5.895 4.943-1.43 2.196-2.176 4.768-2.14 7.389v8.252H56.8v-6.513c0-6.914-2.929-12.044-8.035-14.07-.31-.123-.623-.234-.943-.335l-10.31-3.19c-.113-.05-.203-.139-.255-.251-.05-.112-.058-.24-.02-.357.036-.118.116-.218.222-.28.107-.063.232-.084.353-.06l10.306 3.19c.346.108.684.227 1.016.358 5.5 2.184 8.661 7.651 8.661 14.991v7.011c0 .133-.052.26-.146.354-.094.094-.221.146-.354.146l.002-.002z"/>
    <path fill="#6FA8AC" d="M16.913 11.438c-.078 0-.156-.015-.23-.043-.079-.03-.151-.075-.213-.134-.062-.058-.111-.128-.146-.205-.035-.078-.054-.161-.056-.246-.002-.085.012-.17.042-.248.056-.145.114-.29.176-.433.067-.158.194-.283.354-.348.159-.064.337-.062.495.005.158.067.282.194.347.353.064.16.062.338-.005.495-.054.13-.106.258-.156.387-.047.123-.13.23-.239.303-.108.075-.237.114-.369.113zM18.282 8.736c-.125 0-.248-.036-.353-.106-.07-.046-.132-.106-.18-.176-.048-.07-.081-.149-.098-.232-.018-.083-.018-.169-.002-.252.016-.083.048-.163.095-.234.788-1.247 1.835-2.31 3.07-3.114 1.236-.806 2.63-1.335 4.09-1.552.168-.027.341.013.48.113.14.1.233.251.26.42.029.169-.012.342-.112.481-.1.14-.25.233-.42.26-1.282.19-2.507.656-3.593 1.363-1.085.708-2.005 1.642-2.697 2.737-.058.09-.138.164-.233.215-.094.05-.2.077-.307.076v.001z"/>
</svg>
