<svg xmlns="http://www.w3.org/2000/svg" width="52" height="71" fill="none" viewBox="0 0 52 71">
    <path fill="#CDDDFC" d="M25.491 40.76c8.213 0 14.87-6.853 14.87-15.307s-6.657-15.307-14.87-15.307c-8.212 0-14.87 6.853-14.87 15.307S17.28 40.76 25.491 40.76z"/>
    <path fill="#19548A" stroke="#fff" d="M25.81 43.396c3.547 0 7.015-1.052 9.964-3.022 2.949-1.971 5.248-4.772 6.605-8.049 1.357-3.277 1.713-6.883 1.02-10.362-.691-3.479-2.4-6.674-4.908-9.182-2.508-2.508-5.703-4.216-9.182-4.908-3.479-.692-7.085-.337-10.362 1.02S12.87 12.55 10.9 15.498c-1.971 2.95-3.023 6.417-3.023 9.964 0 4.756 1.89 9.318 5.253 12.681 3.363 3.364 7.925 5.253 12.681 5.253v0zm0-33.832c3.145 0 6.219.932 8.834 2.68 2.614 1.747 4.652 4.23 5.856 7.135 1.203 2.906 1.518 6.103.905 9.187-.614 3.084-2.128 5.917-4.352 8.141s-5.057 3.738-8.141 4.352c-3.084.613-6.281.298-9.187-.905-2.905-1.204-5.388-3.242-7.135-5.856-1.747-2.615-2.68-5.69-2.68-8.834 0-4.217 1.675-8.261 4.657-11.243 2.982-2.982 7.026-4.657 11.243-4.657v0z"/>
    <path fill="#19548A" stroke="#fff" d="M19.767 28.179l-2.242 6.729c-.066.2-.069.417-.006.62.062.202.186.38.354.508.168.128.372.2.583.207.212.007.42-.052.596-.169l6.758-4.506 6.758 4.506c.176.117.385.176.596.17.211-.007.415-.08.583-.208.169-.129.292-.306.355-.509.062-.202.06-.418-.007-.619l-2.242-6.726 4.437-4.437c.144-.142.242-.323.282-.52.04-.198.02-.403-.057-.59-.077-.186-.208-.345-.376-.457-.168-.112-.365-.17-.567-.17h-6.59l-2.209-6.628c-.067-.202-.197-.378-.37-.502-.173-.125-.38-.192-.593-.192-.213 0-.421.067-.594.192-.173.124-.302.3-.37.502l-2.209 6.628h-6.59c-.2 0-.398.06-.565.17-.167.112-.297.27-.374.457-.077.185-.097.39-.058.587.04.197.137.378.28.52l4.437 4.437zm3.605-4.139c.214 0 .422-.069.595-.194.173-.126.302-.303.368-.506l1.474-4.429 1.477 4.432c.067.203.195.38.368.506.173.125.381.193.595.194h4.872l-3.147 3.147c-.133.133-.227.301-.27.485-.043.183-.035.375.025.554l1.5 4.514-4.86-3.244c-.168-.111-.364-.17-.564-.17-.201 0-.397.059-.564.17l-4.853 3.239 1.5-4.514c.06-.179.068-.37.025-.554-.043-.184-.137-.352-.27-.485l-3.14-3.146 4.87.001z"/>
    <path fill="#19548A" stroke="#fff" d="M50.515 62.429l-9.418-19.135c.732-.146 1.392-.54 1.866-1.117.474-.577.733-1.3.734-2.047v-1.916c0-.236.07-.466.201-.662.132-.196.318-.348.536-.438l1.771-.735c.392-.162.747-.4 1.046-.7.3-.3.537-.655.7-1.046.161-.392.245-.811.244-1.235 0-.423-.084-.843-.246-1.234l-.727-1.765c-.09-.218-.114-.458-.068-.69.046-.23.16-.443.326-.61l1.355-1.358c.604-.606.943-1.426.943-2.281 0-.855-.34-1.675-.943-2.281v0l-1.356-1.355c-.167-.167-.28-.38-.327-.61-.046-.232-.022-.472.068-.69l.734-1.772c.326-.79.325-1.678-.003-2.467-.328-.79-.956-1.417-1.746-1.744l-1.764-.73c-.218-.09-.404-.242-.536-.438-.131-.196-.201-.426-.202-.662v-1.912c0-.855-.341-1.675-.946-2.28-.605-.605-1.425-.945-2.28-.946h-1.919c-.236 0-.466-.07-.662-.201-.196-.132-.348-.318-.438-.536l-.733-1.771c-.162-.391-.4-.747-.7-1.046-.3-.3-.656-.537-1.048-.699-.392-.161-.811-.244-1.235-.244-.424.001-.844.085-1.235.248l-1.759.727c-.218.09-.458.114-.69.067-.23-.046-.443-.16-.61-.326l-1.357-1.351c-.605-.604-1.426-.944-2.28-.944-.856 0-1.677.34-2.282.944L22.173 3.8c-.166.167-.379.281-.61.327-.232.046-.472.023-.69-.068L19.1 3.324c-.79-.327-1.679-.327-2.469 0-.79.328-1.418.956-1.746 1.747l-.729 1.764c-.09.218-.242.405-.438.536-.195.132-.426.202-.662.202h-1.908c-.855.001-1.675.341-2.28.946-.605.605-.945 1.425-.946 2.28v1.915c0 .236-.07.466-.201.662s-.318.348-.536.438l-1.77.735c-.79.328-1.418.957-1.744 1.747-.327.79-.326 1.678.002 2.468l.73 1.762c.09.218.114.458.068.69-.045.23-.159.443-.326.61l-1.349 1.349c-.604.605-.943 1.426-.943 2.281 0 .855.34 1.675.943 2.281l1.352 1.362c.167.167.28.38.327.61.046.232.023.472-.068.69l-.734 1.772c-.327.79-.326 1.679.001 2.469.328.79.957 1.418 1.747 1.745l1.758.732c.218.09.405.242.536.438s.202.426.202.662v1.907c.001.747.26 1.47.735 2.047.474.577 1.133.971 1.865 1.117l-9.413 19.14c-.088.18-.122.383-.095.582.026.199.111.386.244.537.132.15.307.259.5.31.195.053.4.046.59-.019l9.054-3.081 3.081 9.054c.065.19.185.358.346.48.16.123.353.195.554.207h.066c.19 0 .376-.053.537-.154.16-.1.29-.243.374-.413l9.46-19.216 9.46 19.218c.084.17.214.313.375.413.16.1.346.154.536.154h.062c.201-.012.394-.084.555-.207.16-.122.28-.29.345-.48l3.081-9.054 9.05 3.082c.19.065.395.072.59.02.194-.052.368-.16.5-.311.133-.151.218-.338.245-.537.026-.2-.007-.402-.096-.582l-.003-.002zm-40.567-22.3v-1.907c.002-.638-.187-1.263-.541-1.793-.354-.531-.859-.945-1.449-1.188l-1.762-.729c-.145-.06-.277-.148-.388-.259-.11-.11-.199-.242-.259-.387-.06-.145-.091-.3-.091-.458 0-.157.031-.312.091-.457l.733-1.77c.245-.59.31-1.238.185-1.864-.125-.626-.433-1.2-.885-1.651l-1.356-1.36c-.223-.225-.348-.529-.348-.845 0-.317.125-.62.348-.845l1.348-1.349c.453-.45.761-1.026.886-1.652.125-.626.06-1.276-.186-1.865l-.726-1.757c-.06-.145-.091-.3-.091-.457 0-.157.03-.312.09-.457.06-.145.149-.277.26-.388.11-.111.242-.199.387-.259l1.771-.734c.59-.244 1.094-.657 1.448-1.187.355-.531.543-1.155.542-1.793v-1.916c0-.317.126-.622.35-.846.223-.225.527-.352.844-.354h1.9c.638.001 1.262-.188 1.793-.542.53-.355.944-.86 1.187-1.45l.73-1.762c.121-.292.354-.524.646-.646.292-.122.621-.123.914-.003l1.772.732c.59.245 1.238.309 1.864.184.625-.124 1.2-.432 1.65-.884l1.356-1.356c.228-.217.53-.338.845-.338.315 0 .617.12.845.338L28 5.223c.45.453 1.026.761 1.652.886.626.125 1.276.06 1.865-.186l1.762-.731c.146-.062.302-.094.46-.094.158-.001.315.03.46.09.147.06.28.15.391.261.111.112.2.246.26.392l.734 1.771c.244.59.657 1.094 1.187 1.448.531.355 1.155.543 1.793.542h1.918c.317.002.621.129.845.354.224.224.35.529.35.846v1.907c-.001.638.188 1.261.542 1.792.355.53.86.942 1.45 1.185l1.764.731c.145.06.277.148.388.259.111.11.2.242.26.387.06.145.09.3.09.458 0 .157-.03.312-.09.457l-.737 1.771c-.245.59-.31 1.238-.185 1.864.125.626.433 1.2.885 1.651L47.4 24.62c.223.225.348.528.348.845 0 .317-.125.62-.348.845l-1.35 1.347c-.454.45-.762 1.025-.887 1.652-.124.626-.06 1.275.186 1.865l.732 1.767c.06.145.091.3.091.457 0 .157-.03.312-.09.457-.06.145-.148.277-.26.388-.11.111-.242.199-.387.259l-1.77.734c-.59.244-1.095.657-1.449 1.187-.354.531-.543 1.155-.542 1.793v1.915c-.001.316-.128.619-.351.843-.224.223-.527.35-.843.351h-1.91c-.64-.001-1.264.188-1.795.542-.53.355-.944.86-1.187 1.45l-.729 1.763c-.06.145-.147.277-.258.389-.111.11-.243.199-.388.26-.145.06-.3.09-.457.09-.157 0-.313-.03-.458-.09l-1.772-.73c-.589-.245-1.238-.31-1.863-.184-.626.124-1.2.432-1.65.884l-1.357 1.356c-.228.217-.53.338-.845.338-.314 0-.617-.121-.845-.338l-1.348-1.349c-.45-.453-1.025-.761-1.652-.886-.626-.124-1.275-.06-1.865.186l-1.762.731c-.145.06-.3.091-.457.091-.157 0-.312-.03-.457-.09-.145-.06-.277-.148-.388-.26-.11-.11-.199-.242-.259-.387l-.735-1.775c-.243-.59-.656-1.094-1.187-1.449-.53-.354-1.155-.543-1.793-.542h-1.914c-.317 0-.622-.126-.847-.35-.225-.224-.352-.529-.353-.846v0zm5.661 26.706l-2.615-7.694c-.043-.126-.11-.243-.198-.343-.088-.1-.195-.182-.315-.241-.12-.06-.25-.094-.383-.102-.133-.009-.267.009-.393.052l-7.694 2.618 8.747-17.77h.305c.236 0 .466.07.662.202.196.13.348.317.438.535l.733 1.774c.329.79.957 1.416 1.747 1.743.79.326 1.678.326 2.468-.002l1.763-.73c.218-.09.458-.114.69-.068.23.046.443.16.61.327l1.348 1.348c.243.236.523.432.828.58l-8.74 17.771zm24.3-8.327c-.126-.043-.26-.06-.393-.052s-.263.043-.383.102-.226.14-.315.24c-.087.101-.155.218-.198.344l-2.618 7.693-8.74-17.768c.304-.148.584-.344.827-.58l1.36-1.356c.166-.167.378-.282.61-.328.231-.046.471-.022.69.068l1.771.734c.79.327 1.68.327 2.47-.001.79-.328 1.418-.956 1.745-1.747l.73-1.761c.089-.218.241-.405.437-.536.196-.132.426-.202.662-.202h.295l8.747 17.771-7.697-2.621z"/>
    <path fill="#CDDDFC" d="M12.745 43.259l-8 17.244 9.122-4.873 1.877 7.062 7.87-14.559s-.25-4-4.373-1.25c-1.753 1.168-3.249.625-4.624-2.874-1.247-1.082-1.872-.75-1.872-.75zM39.236 43.259l8 17.244-9.122-4.873-1.877 7.062-7.87-14.559s.25-4 4.374-1.25c1.753 1.168 3.25.625 4.623-2.874 1.246-1.082 1.872-.75 1.872-.75z"/>
</svg>
