<svg xmlns="http://www.w3.org/2000/svg" width="73" height="71" fill="none" viewBox="0 0 73 71">
    <path fill="#CDDDFC" d="M31.9 27.21h9.51v33.28H31.9V27.21z"/>
    <path fill="#C9D9F7" stroke="#fff" d="M60.43 22.46h9.51v38.03h-9.51V22.46zM46.17 48.61h9.51v11.88h-9.51V48.61z"/>
    <path fill="#CDDDFC" stroke="#fff" d="M3.38 31.97h9.51v28.52H3.38V31.97z"/>
    <path fill="#C9D9F7" d="M17.64 39.1h9.51v21.39h-9.51V39.1z"/>
    <path fill="#fff" d="M2.19 64.06h68.93v4.75H2.19v-4.75z"/>
    <path fill="#19548A" stroke="#fff" d="M31.9 26.03c-.66 0-1.19.53-1.19 1.19v33.27c0 .66.53 1.19 1.19 1.19h9.51c.66 0 1.19-.53 1.19-1.19V27.22c0-.66-.53-1.19-1.19-1.19H31.9zm8.32 33.27h-7.13V28.4h7.13v30.9zM60.43 21.27c-.66 0-1.19.53-1.19 1.19v38.03c0 .66.53 1.19 1.19 1.19h9.51c.66 0 1.19-.53 1.19-1.19V22.46c0-.66-.53-1.19-1.19-1.19h-9.51zm8.32 38.03h-7.13V23.65h7.13V59.3zM46.16 47.42c-.66 0-1.19.53-1.19 1.19v11.88c0 .66.53 1.19 1.19 1.19h9.51c.66 0 1.19-.53 1.19-1.19V48.61c0-.66-.53-1.19-1.19-1.19h-9.51zm8.32 11.88h-7.13v-9.51h7.13v9.51zM3.38 61.68h9.51c.66 0 1.19-.53 1.19-1.19V31.97c0-.66-.53-1.19-1.19-1.19H3.38c-.66 0-1.19.53-1.19 1.19v28.52c0 .66.53 1.19 1.19 1.19zm1.19-28.52h7.13v26.15H4.57V33.16zM17.64 37.91c-.66 0-1.19.53-1.19 1.19v21.39c0 .66.53 1.19 1.19 1.19h9.51c.66 0 1.19-.53 1.19-1.19V39.1c0-.66-.53-1.19-1.19-1.19h-9.51zm8.32 21.39h-7.13V40.29h7.13V59.3z"/>
    <path fill="#19548A" stroke="#fff" d="M8.13 20.08c1.37 0 2.67-.6 3.57-1.64l6.05 3.03c-.57 2.56 1.05 5.1 3.61 5.67 2.56.57 5.1-1.05 5.67-3.61.23-1.04.11-2.12-.35-3.08l7.21-6.01c1.24.92 2.87 1.15 4.32.62l9.17 13.77c-1.75 1.95-1.59 4.96.36 6.71 1.95 1.75 4.96 1.59 6.71-.36 1.73-1.93 1.6-4.89-.3-6.66l9.87-18.09c.38.1.77.15 1.16.15 2.64.02 4.81-2.1 4.83-4.75.02-2.64-2.1-4.81-4.75-4.83-2.64-.02-4.81 2.1-4.83 4.75-.01 1.33.54 2.61 1.51 3.53l-9.86 18.1c-.89-.25-1.84-.2-2.71.13l-9.18-13.77c1.76-1.95 1.61-4.95-.34-6.71-1.95-1.76-4.95-1.61-6.71.34-1.3 1.43-1.59 3.51-.76 5.25l-7.21 6.01c-1.98-1.44-4.74-1.12-6.33.74l-6.06-3.03c.55-2.57-1.09-5.09-3.66-5.64-2.57-.55-5.09 1.09-5.64 3.66-.55 2.57 1.09 5.09 3.66 5.64.33.05.66.08.99.08zM65.18 3.44c1.31 0 2.38 1.06 2.38 2.38 0 1.31-1.06 2.38-2.38 2.38-1.32 0-2.38-1.06-2.38-2.38 0-1.31 1.07-2.37 2.38-2.38zM53.3 31.97c0 1.31-1.06 2.38-2.38 2.38-1.31 0-2.38-1.06-2.38-2.38 0-1.32 1.06-2.38 2.38-2.38 1.31 0 2.38 1.07 2.38 2.38zM36.66 8.2c1.31 0 2.38 1.07 2.38 2.38 0 1.31-1.07 2.38-2.38 2.38-1.31 0-2.38-1.07-2.38-2.38 0-1.32 1.07-2.38 2.38-2.38zM22.4 20.08c1.31 0 2.38 1.06 2.38 2.38 0 1.31-1.06 2.38-2.38 2.38-1.32 0-2.38-1.06-2.38-2.38 0-1.31 1.06-2.38 2.38-2.38zM8.13 12.95c1.31 0 2.38 1.06 2.38 2.38 0 1.32-1.06 2.38-2.38 2.38-1.31 0-2.38-1.06-2.38-2.38 0-1.32 1.07-2.38 2.38-2.38z"/>
    <path fill="#19548A" d="M71.12 62.87H2.19c-.66 0-1.19.53-1.19 1.19v4.76c0 .66.53 1.19 1.19 1.19h68.93c.66 0 1.19-.53 1.19-1.19v-4.75c0-.67-.53-1.2-1.19-1.2.01 0 0 0 0 0zm-1.19 4.75H3.38v-2.38h66.55v2.38z"/>
    <path stroke="#fff" d="M71.12 62.87H2.19c-.66 0-1.19.53-1.19 1.19v4.76c0 .66.53 1.19 1.19 1.19h68.93c.66 0 1.19-.53 1.19-1.19v-4.75c0-.67-.53-1.2-1.19-1.2zm0 0c.01 0 0 0 0 0zm-1.19 4.75H3.38v-2.38h66.55v2.38z"/>
</svg>
