<svg xmlns="http://www.w3.org/2000/svg" width="72" height="72" fill="none" viewBox="0 0 72 72">
    <path fill="#CDDDFC" d="M49.096 43.999h-28c-2.21 0-4 1.79-4 4v16c0 2.21 1.79 4 4 4h28c2.21 0 4-1.79 4-4v-16c0-2.21-1.79-4-4-4zM43.096 29.199c1 .6 21.4 30 21.4 30l3.4-2.6s.6-.6 0-2.6-20-26.2-20-26.2c-.39-.245-.84-.375-1.3-.375-.46 0-.91.13-1.3.375-1.6.8-3.2.8-2.2 1.4z"/>
    <path fill="#19548A" stroke="#fff" d="M70.549 54.478l-4.494-6.313 1.61-1.146c.534-.38.948-.905 1.193-1.513.246-.608.312-1.273.192-1.918-.12-.644-.423-1.24-.871-1.719-.448-.478-1.024-.818-1.659-.98l-6.251-1.592.543-6.427c.06-.654-.07-1.311-.377-1.892-.305-.581-.772-1.062-1.345-1.383-2.572-1.467-4.5.94-5.3 1.331-4.177-5.456-4.245-6.979-6.3-7.326-2.055-.347-2.821 1.2-8.026 4.622l9.151 12.857H14.54v24.865c.001 1.34.534 2.625 1.482 3.572.947.948 2.232 1.48 3.572 1.482h32.344c1.34-.001 2.625-.534 3.572-1.482.948-.947 1.48-2.232 1.482-3.572V52.861l7.081 9.948 5.764-4.1c.655-.467 1.098-1.175 1.232-1.968.133-.794-.054-1.607-.52-2.263v0zm-3.486-10.519c.251 1.343-1.181 1.682-2.18 2.558l-3.442-4.836c3.781 1.18 5.349.802 5.623 2.278h-.001zM58.09 31.351c1.3.743.437 2.045.311 6.058l-3.442-4.836c1.155-.657 1.944-1.898 3.131-1.222zm-15.814-2.653l4.117-2.931c.218-.155.49-.218.754-.173.264.044.5.192.656.41l4.337 6.094 4.025 5.654-4.941 3.517-8.948-12.571zM31.99 68.977h-12.4c-.804-.001-1.574-.32-2.143-.89-.568-.568-.888-1.338-.889-2.142V43.102H31.99v25.875zm5.526 0h-3.5V43.102h3.5v25.875zm17.453-3.032c-.001.804-.32 1.574-.89 2.143-.568.568-1.338.888-2.142.889h-12.4V43.102h10.507l4.925 6.919v15.924zm-.543-20.173l-2.032-2.855 4.941-3.517 2.032 2.855-4.941 3.517zM68.664 57.06l-4.117 2.931-8.948-12.572 4.941-3.517 8.362 11.748c.155.218.218.49.173.754-.044.264-.192.5-.41.656h-.001zM15.551 23.373l8.375 4.4-1.6-9.326 6.775-6.6-9.362-1.36L15.551 2l-4.187 8.487L2 11.845l6.775 6.6-1.6 9.326 8.376-4.398zM6.344 13.257l6.362-.924 2.845-5.765 2.849 5.764 6.362.924-4.6 4.487 1.087 6.336-5.698-2.992-5.69 2.991 1.087-6.336-4.604-4.485z"/>
    <path fill="#19548A" stroke="#fff" d="M29.632 35.15l2.972 4.2 1.528-4.916 4.916-1.528-4.2-2.972.066-5.147-4.125 3.079-4.875-1.653 1.653 4.875-3.079 4.125 5.144-.063zm-.492-5.7l2 .679 1.694-1.265-.027 2.114 1.726 1.221-2.019.628-.628 2.019-1.221-1.726-2.114.027 1.265-1.695-.676-2.002zM36.468 24.633l4.778-4.9 6.746 1.157-3.185-6.058 3.185-6.058-6.746 1.157-4.778-4.9-.984 6.773-6.138 3.029 6.138 3.029.984 6.771zm.863-11.485l.548-3.772 2.66 2.729 3.757-.644-1.774 3.374 1.774 3.374-3.757-.644-2.66 2.729-.548-3.772-3.418-1.687 3.418-1.687zM10.49 32.271h2.022v2.022H10.49v-2.022zM16.963 32.271h2.022v2.022h-2.022v-2.022zM13.726 29.034h2.022v2.022h-2.022v-2.022zM13.726 35.508h2.022v2.022h-2.022v-2.022zM51.734 11.913h2.022v2.022h-2.022v-2.022zM58.208 11.913h2.022v2.022h-2.022v-2.022zM54.971 8.676h2.022v2.022h-2.022V8.676zM54.971 15.15h2.022v2.022h-2.022V15.15z"/>
    <path fill="#CDDDFC" d="M12.722 12.599l2.774-5.6 3.035 6.4h5.808l-4.12 3.2.478 6.4-5.2-3.2-5.5 4.07 1.241-7.27-4.021-3.2 5.505-.8zM37.654 13.012l.38-3.263 2.597 2.562 3.47-.688-1.688 2.802 2.121 4.06-3.903-1.237-2.921 3.54-.426-4.601-3.187-1.25 3.557-1.925z"/>
</svg>
