<svg xmlns="http://www.w3.org/2000/svg" width="71" height="71" fill="none" viewBox="0 0 71 71">
    <path fill="#78B9EB" stroke="#fff" d="M31.25 40.938c.07.08.13.17.2.26-.07-.08-.14-.17-.2-.26zM30.54 40.128c.05.05.09.1.13.15-.04-.05-.09-.11-.13-.15zM31.9 41.908c.04.07.09.14.13.21-.04-.07-.08-.13-.13-.21zM32.5 43.088c.03.08.06.16.09.23-.04-.07-.06-.15-.09-.23zM29.52 39.248l.22.16c-.07-.05-.14-.11-.22-.16zM28.57 38.618c.09.05.18.11.28.17-.1-.06-.19-.12-.28-.17zM29.19 54.178c.68-.43 1.31-.92 1.9-1.46.16-.15.3-.33.42-.52.63-1.02 1.1-2.13 1.38-3.29-.56 2.14-1.88 4.01-3.7 5.27zM25.13 37.468c.11.01.22.03.32.05-.11-.02-.21-.04-.32-.05zM27.6 38.118l.12.06-.12-.06zM32.85 44.148c.03.11.06.22.08.33-.02-.12-.05-.22-.08-.33zM23.94 55.788c-.26 0-.51-.03-.77-.05.26.02.51.05.77.05zM26.32 55.478l-.14.04.14-.04zM33.1 45.378l.03.2-.03-.2zM22.8 55.708c-.37-.05-.74-.12-1.11-.21.36.09.73.16 1.11.21zM25.18 55.698c-.05.01-.1.02-.15.02.04 0 .1-.01.15-.02zM29.03 54.268c-.16.11-.33.21-.5.3.17-.08.34-.19.5-.3zM33.18 46.718c0 .1-.01.2-.01.3 0-.1.01-.2.01-.3zM33.08 47.898l-.06.41c.03-.14.05-.28.06-.41zM26.27 37.688c.1.02.2.05.3.08-.1-.04-.2-.06-.3-.08z"/>
    <path fill="#CDDDFC" d="M4.44 51.19h1.27c.95 0 1.81.59 2.14 1.48.13.35.27.68.42 1.02.4.87.21 1.89-.46 2.57l-.9.91c-.9.9-.9 2.35 0 3.25l3.25 3.25c.9.9 2.35.9 3.25 0l.9-.9c.68-.67 1.7-.86 2.57-.46.33.15.67.29 1.02.42.89.33 1.48 1.19 1.49 2.14v1.27c0 1.27 1.03 2.3 2.3 2.3h4.6c1.27 0 2.3-1.03 2.3-2.3v-1.26c0-.95.59-1.81 1.48-2.14.35-.13.68-.27 1.02-.42.87-.4 1.89-.21 2.57.46l.9.9c.9.9 2.35.9 3.25 0l3.25-3.25c.9-.9.9-2.35 0-3.25l-.9-.9c-.67-.68-.86-1.7-.46-2.57.15-.33.29-.67.42-1.02.33-.89 1.19-1.49 2.15-1.49h1.26c1.27 0 2.3-1.03 2.3-2.3v-4.6c0-1.27-1.03-2.3-2.3-2.3h-1.26c-.95 0-1.81-.59-2.14-1.48-.13-.35-.27-.68-.42-1.02-.4-.87-.22-1.89.46-2.57l.9-.9c.9-.9.9-2.35 0-3.25l-3.25-3.25c-.9-.9-2.35-.9-3.25 0l-.9.9c-.68.67-1.7.86-2.57.46-.33-.15-.67-.29-1.02-.42-.89-.33-1.49-1.19-1.49-2.15v-1.27c0-1.27-1.03-2.3-2.3-2.3h-4.6c-1.27 0-2.3 1.03-2.3 2.3v1.26c0 .95-.6 1.8-1.49 2.13-.34.13-.68.27-1.02.42-.87.4-1.89.21-2.57-.46l-.91-.9c-.9-.9-2.35-.9-3.25 0l-3.24 3.25c-.9.9-.9 2.35 0 3.25l.9.9c.68.68.86 1.7.46 2.57-.15.33-.29.67-.42 1.02-.34.89-1.19 1.49-2.14 1.48H4.44c-1.27 0-2.3 1.03-2.3 2.3v4.6c-.01 1.28 1.02 2.31 2.3 2.32-.01 0 0 0 0 0zm17.25-13.52c.75-.19 1.52-.29 2.3-.29.38 0 .76.03 1.14.08.11.01.22.03.32.05.28.04.55.1.82.17.1.02.2.05.3.08.35.1.69.22 1.03.36l.12.06c.29.13.58.28.85.44.09.05.18.12.28.17.23.15.46.3.68.47l.22.16c.28.22.54.46.79.71.05.05.09.1.13.15.2.21.39.44.58.67l.2.26c.17.23.32.46.46.71.04.07.09.14.13.21.17.31.33.64.47.97.03.08.06.16.09.23.1.27.19.54.27.82.03.11.06.22.08.32.07.3.13.6.17.91l.03.2c.04.33.06.67.06 1.01 0 .05 0 .09-.01.14 0 .1-.01.2-.01.3-.01.3-.04.59-.08.88l-.06.41c-.04.21-.09.41-.14.61-.28 1.16-.75 2.27-1.38 3.29-.12.19-.26.36-.42.52-.59.55-1.22 1.04-1.9 1.46l-.15.1c-.17.1-.33.21-.5.3-.7.4-1.44.7-2.21.9l-.14.04c-.33.08-.66.14-1 .19-.05.01-.1.02-.16.02-.34.04-.69.06-1.03.07h-.07c-.26 0-.51-.03-.77-.05-.13-.01-.25-.01-.38-.03-.37-.05-.74-.12-1.11-.21-4.92-1.27-7.88-6.3-6.61-11.22.85-3.27 3.38-5.8 6.61-6.64z"/>
    <path fill="#78B9EB" stroke="#fff" d="M4.44 51.19h1.27c.95 0 1.81.59 2.14 1.48.13.35.27.68.42 1.02.4.87.21 1.89-.46 2.57l-.9.91c-.9.9-.9 2.35 0 3.25l3.25 3.25c.9.9 2.35.9 3.25 0l.9-.9c.68-.67 1.7-.86 2.57-.46.33.15.67.29 1.02.42.89.33 1.48 1.19 1.49 2.14v1.27c0 1.27 1.03 2.3 2.3 2.3h4.6c1.27 0 2.3-1.03 2.3-2.3v-1.26c0-.95.59-1.81 1.48-2.14.35-.13.68-.27 1.02-.42.87-.4 1.89-.21 2.57.46l.9.9c.9.9 2.35.9 3.25 0l3.25-3.25c.9-.9.9-2.35 0-3.25l-.9-.9c-.67-.68-.86-1.7-.46-2.57.15-.33.29-.67.42-1.02.33-.89 1.19-1.49 2.15-1.49h1.26c1.27 0 2.3-1.03 2.3-2.3v-4.6c0-1.27-1.03-2.3-2.3-2.3h-1.26c-.95 0-1.81-.59-2.14-1.48-.13-.35-.27-.68-.42-1.02-.4-.87-.22-1.89.46-2.57l.9-.9c.9-.9.9-2.35 0-3.25l-3.25-3.25c-.9-.9-2.35-.9-3.25 0l-.9.9c-.68.67-1.7.86-2.57.46-.33-.15-.67-.29-1.02-.42-.89-.33-1.49-1.19-1.49-2.15v-1.27c0-1.27-1.03-2.3-2.3-2.3h-4.6c-1.27 0-2.3 1.03-2.3 2.3v1.26c0 .95-.6 1.8-1.49 2.13-.34.13-.68.27-1.02.42-.87.4-1.89.21-2.57-.46l-.91-.9c-.9-.9-2.35-.9-3.25 0l-3.24 3.25c-.9.9-.9 2.35 0 3.25l.9.9c.68.68.86 1.7.46 2.57-.15.33-.29.67-.42 1.02-.34.89-1.19 1.49-2.14 1.48H4.44c-1.27 0-2.3 1.03-2.3 2.3v4.6c-.01 1.28 1.02 2.31 2.3 2.32zm0 0c-.01 0 0 0 0 0zm17.25-13.52c.75-.19 1.52-.29 2.3-.29.38 0 .76.03 1.14.08.11.01.22.03.32.05.28.04.55.1.82.17.1.02.2.05.3.08.35.1.69.22 1.03.36l.12.06c.29.13.58.28.85.44.09.05.18.12.28.17.23.15.46.3.68.47l.22.16c.28.22.54.46.79.71.05.05.09.1.13.15.2.21.39.44.58.67l.2.26c.17.23.32.46.46.71.04.07.09.14.13.21.17.31.33.64.47.97.03.08.06.16.09.23.1.27.19.54.27.82.03.11.06.22.08.32.07.3.13.6.17.91l.03.2c.04.33.06.67.06 1.01 0 .05 0 .09-.01.14 0 .1-.01.2-.01.3-.01.3-.04.59-.08.88l-.06.41c-.04.21-.09.41-.14.61-.28 1.16-.75 2.27-1.38 3.29-.12.19-.26.36-.42.52-.59.55-1.22 1.04-1.9 1.46l-.15.1c-.17.1-.33.21-.5.3-.7.4-1.44.7-2.21.9l-.14.04c-.33.08-.66.14-1 .19-.05.01-.1.02-.16.02-.34.04-.69.06-1.03.07h-.07c-.26 0-.51-.03-.77-.05-.13-.01-.25-.01-.38-.03-.37-.05-.74-.12-1.11-.21-4.92-1.27-7.88-6.3-6.61-11.22.85-3.27 3.38-5.8 6.61-6.64z"/>
    <path fill="#78B9EB" stroke="#fff" d="M32.028 42.12c.17.31.33.64.47.97-.14-.33-.29-.65-.47-.97zM32.588 43.33c.1.27.19.54.27.82-.08-.28-.17-.55-.27-.82zM33.188 46.59c0-.33-.02-.67-.06-1 .04.38.06.76.05 1.14.01-.05.01-.1.01-.14zM32.938 44.47c.07.3.13.6.17.91-.05-.3-.1-.61-.17-.91zM25.448 37.51c.28.04.55.1.82.17-.26-.06-.54-.12-.82-.17zM23.988 37.39c.38 0 .76.03 1.14.08-.38-.06-.76-.08-1.14-.08zM27.718 38.18c.29.13.58.28.85.44-.28-.17-.56-.31-.85-.44zM26.568 37.76c.35.1.69.22 1.03.36-.33-.14-.68-.26-1.03-.36zM31.438 41.21c.17.23.32.46.46.71-.14-.25-.29-.49-.46-.71zM30.668 40.27c.2.21.39.44.57.67-.17-.23-.36-.45-.57-.67zM28.838 38.78c.23.15.46.3.68.47-.21-.17-.44-.32-.68-.47zM29.738 39.41c.28.22.54.46.79.71-.25-.25-.51-.49-.79-.71zM28.528 54.58c-.7.39-1.44.69-2.21.9.77-.2 1.52-.5 2.21-.9zM26.178 55.51c-.33.08-.66.14-1 .19.33-.04.67-.11 1-.19zM23.988 55.78c.35 0 .69-.02 1.04-.06-.36.04-.72.06-1.08.06h.04zM23.178 55.73c-.13-.01-.26-.01-.38-.03.12.02.25.02.38.03zM33.168 47.02c-.01.29-.04.58-.08.88.04-.29.07-.59.08-.88zM29.178 54.18c-.05.03-.1.07-.15.1l.15-.1zM33.028 48.3c-.04.2-.09.4-.14.61.05-.2.1-.4.14-.61z"/>
    <path fill="#78B9EB" stroke="#fff" d="M43.54 40.84h-1.26c-.48 0-.9-.3-1.06-.74-.14-.37-.29-.73-.45-1.08-.2-.43-.11-.95.23-1.28l.9-.9c1.34-1.35 1.34-3.53-.01-4.88l-3.25-3.25c-1.35-1.34-3.53-1.34-4.88 0l-.9.9c-.34.34-.85.43-1.28.23-.36-.16-.72-.31-1.09-.46-.45-.16-.75-.59-.75-1.07v-1.26c0-1.91-1.54-3.45-3.45-3.45h-4.6c-1.91 0-3.45 1.54-3.45 3.45v1.26c0 .48-.3.9-.74 1.07-.37.14-.73.29-1.08.45-.43.2-.95.11-1.28-.23l-.9-.9c-1.35-1.34-3.53-1.34-4.88 0l-3.25 3.26c-1.34 1.35-1.34 3.53 0 4.88l.9.9c.34.34.43.85.23 1.28-.16.36-.31.72-.45 1.09-.16.45-.59.75-1.07.74H4.45C2.55 40.85 1 42.39 1 44.3v4.6c0 1.91 1.54 3.45 3.45 3.45h1.27c.48 0 .9.3 1.06.74.14.37.29.73.45 1.08.2.43.11.95-.23 1.28l-.9.9c-1.34 1.35-1.34 3.53 0 4.88l3.25 3.25c1.35 1.34 3.53 1.34 4.88 0l.9-.9c.34-.34.85-.43 1.28-.23.36.16.72.31 1.09.46.45.16.75.59.75 1.07v1.26c0 1.91 1.54 3.45 3.45 3.45h4.6c1.91 0 3.45-1.54 3.45-3.45v-1.26c0-.48.3-.9.74-1.07.37-.14.73-.29 1.08-.45.43-.2.95-.11 1.28.23l.9.9c1.35 1.34 3.53 1.33 4.88-.01l3.25-3.25c1.34-1.35 1.34-3.53 0-4.88l-.9-.9c-.34-.34-.43-.85-.23-1.28.16-.36.31-.72.46-1.09.16-.45.59-.75 1.07-.75h1.27c1.91 0 3.45-1.54 3.45-3.45v-4.6c-.01-1.9-1.56-3.44-3.46-3.44zm1.15 8.05c0 .64-.51 1.15-1.15 1.15h-1.26c-1.43.01-2.71.89-3.22 2.22-.12.32-.26.64-.4.95-.59 1.31-.32 2.84.69 3.86l.9.9c.45.45.45 1.18 0 1.63L37 62.85c-.45.45-1.18.45-1.63 0l-.9-.9c-1.02-1.01-2.55-1.28-3.86-.69-.31.14-.63.27-.95.4-1.33.51-2.22 1.79-2.22 3.22v1.26c0 .64-.51 1.15-1.15 1.15h-4.6c-.64 0-1.15-.51-1.15-1.15v-1.26c-.01-1.43-.89-2.71-2.22-3.22-.32-.12-.64-.26-.95-.4-1.31-.59-2.84-.32-3.86.69l-.9.9c-.45.45-1.18.45-1.63 0L7.73 59.6c-.45-.45-.45-1.18 0-1.63l.9-.9c1.01-1.02 1.28-2.55.69-3.86-.14-.31-.27-.63-.4-.95-.51-1.34-1.79-2.22-3.22-2.23H4.44c-.64 0-1.15-.51-1.15-1.15v-4.6c0-.64.51-1.15 1.15-1.15H5.7c1.43-.01 2.71-.89 3.22-2.22.12-.32.26-.64.4-.95.59-1.31.32-2.84-.69-3.86l-.9-.9c-.45-.45-.45-1.18 0-1.63l3.25-3.25c.45-.45 1.18-.45 1.63 0l.9.9c1.02 1.01 2.55 1.28 3.86.69.31-.14.63-.27.95-.4 1.34-.51 2.22-1.79 2.23-3.22v-1.26c0-.64.51-1.15 1.15-1.15h4.6c.64 0 1.15.51 1.15 1.15v1.26c.01 1.43.89 2.71 2.22 3.22.32.12.64.26.95.4 1.31.59 2.84.32 3.86-.69l.9-.9c.45-.45 1.18-.45 1.63 0l3.25 3.25c.45.45.45 1.18 0 1.63l-.9.9c-1.01 1.02-1.28 2.55-.69 3.86.14.31.27.63.4.95.51 1.33 1.79 2.22 3.22 2.22h1.25c.64 0 1.15.51 1.15 1.15v4.61z"/>
    <path fill="#78B9EB" stroke="#fff" d="M34.31 46.13c-.01-.28-.03-.55-.06-.82-.04-.29-.08-.59-.14-.87-.04-.19-.09-.37-.14-.56-.07-.24-.14-.47-.22-.7-.06-.16-.11-.32-.18-.48-.15-.37-.32-.73-.51-1.08-.01-.03-.02-.05-.04-.08-.3-.53-.65-1.04-1.04-1.51-.03-.04-.07-.08-.11-.12-.16-.19-.32-.37-.49-.54-.09-.09-.18-.18-.28-.27-.11-.11-.23-.21-.35-.31-.14-.12-.28-.24-.43-.35l-.19-.14c-1.78-1.33-3.94-2.05-6.17-2.05-.11 0-.23.02-.35.02-.25.01-.49.02-.74.05-.13.01-.26.03-.39.05-.37.05-.75.12-1.11.21-5.54 1.43-8.87 7.08-7.43 12.62.94 3.65 3.79 6.5 7.44 7.44.02 0 .04 0 .06.01.4.1.8.18 1.21.23.27.03.54.04.8.05.18.01.35.04.53.04.33 0 .67-.02 1.01-.06.04 0 .08-.01.11-.02.28-.03.56-.07.85-.13.11-.02.22-.05.33-.08.2-.05.4-.1.61-.16.16-.05.32-.1.47-.16.15-.06.32-.11.48-.18.16-.07.3-.13.45-.2.19-.09.39-.18.57-.28h.01c1.07-.57 2.06-1.29 2.95-2.13.24-.22.45-.48.62-.75.9-1.44 1.49-3.05 1.73-4.73.03-.22.06-.44.08-.67.02-.21.03-.42.03-.62 0-.07.01-.13.01-.19.05-.18.03-.33.02-.48zm-12.34-7.34c.66-.17 1.34-.25 2.02-.25.33 0 .66.02.98.07.09.01.17.03.26.04.25.04.49.09.74.15l.24.06c.61.18 1.2.42 1.75.74.09.05.18.11.26.16.18.11.36.23.53.36.09.07.19.13.28.21.23.18.44.37.65.58.08.08.16.17.24.26.13.14.26.29.38.45.08.11.17.22.25.33.11.17.23.34.33.51l.17.29c.15.27.28.55.4.84.05.11.08.23.13.35.07.21.14.42.2.64.03.11.06.22.08.33.07.31.12.63.15.94.01.08.01.17.01.25.02.27.02.53.01.8 0 .1-.01.19-.01.29-.02.28-.06.56-.1.84-.43 2.39-1.91 4.46-4.04 5.64-.14.08-.28.14-.42.21l-.1.05c-.67.3-1.37.52-2.1.64-.05.01-.1.02-.15.02-.14.02-.29.04-.43.05-.18.02-.37.02-.56.03h-.25c-.27 0-.54-.02-.81-.05l-.14-.02c-.32-.04-.63-.1-.94-.18-4.31-1.1-6.91-5.48-5.81-9.79.72-2.88 2.95-5.11 5.8-5.84zM66.54 24.74h-3.62c-.48 0-.91-.3-1.07-.75-.36-1.07-.79-2.11-1.29-3.12-.21-.44-.13-.96.22-1.3L63.34 17c1.35-1.35 1.35-3.53 0-4.88l-4.89-4.88c-1.35-1.35-3.53-1.35-4.88 0L51.01 9.8c-.34.35-.86.44-1.3.22-1.01-.51-2.05-.94-3.12-1.3-.46-.16-.76-.59-.76-1.07V4.04c0-1.9-1.54-3.45-3.45-3.45h-6.9c-1.91 0-3.45 1.54-3.45 3.45v3.62c0 .48-.3.91-.75 1.07-1.07.36-2.11.79-3.12 1.3-.44.21-.96.13-1.3-.22l-2.57-2.56c-1.35-1.34-3.53-1.34-4.88 0l-4.88 4.88c-1.35 1.35-1.35 3.53 0 4.88l3.77 3.78c.46.44 1.19.43 1.63-.03.43-.44.43-1.15 0-1.59l-3.77-3.78c-.45-.45-.45-1.18 0-1.63l4.89-4.88c.45-.45 1.18-.45 1.63 0l2.57 2.56c1.04 1.05 2.63 1.31 3.95.65.91-.46 1.85-.85 2.82-1.17 1.39-.47 2.33-1.78 2.32-3.25V4.05c0-.64.51-1.15 1.15-1.15h6.9c.64 0 1.15.51 1.15 1.15v3.62c-.01 1.47.93 2.78 2.32 3.25.97.32 1.91.72 2.82 1.17 1.32.65 2.91.39 3.95-.65l2.57-2.56c.45-.45 1.18-.45 1.63 0l4.88 4.88c.45.45.45 1.18 0 1.62l-2.56 2.57c-1.04 1.04-1.31 2.63-.65 3.95.46.91.85 1.85 1.17 2.82.47 1.39 1.78 2.33 3.25 2.32h3.62c.64 0 1.15.51 1.15 1.15v6.9c0 .64-.51 1.15-1.15 1.15h-3.62c-1.47-.01-2.78.93-3.25 2.32-.32.97-.72 1.91-1.17 2.82-.66 1.32-.39 2.91.65 3.95l2.56 2.57c.45.45.45 1.18 0 1.63l-4.88 4.88c-.45.45-1.18.45-1.62 0l-3.78-3.77c-.44-.46-1.16-.48-1.63-.05-.46.44-.48 1.16-.05 1.63l.02.02.03.03 3.78 3.77c1.35 1.35 3.53 1.35 4.88 0l4.88-4.88c1.35-1.35 1.35-3.53 0-4.88l-2.56-2.56c-.35-.34-.44-.86-.22-1.3.51-1.01.94-2.05 1.3-3.12.16-.46.59-.76 1.07-.76h3.62c1.91 0 3.45-1.54 3.45-3.45v-6.9c0-1.91-1.55-3.45-3.46-3.45z"/>
    <path fill="#78B9EB" stroke="#fff" d="M49.51 21.07c-5.84-5.83-15.3-5.83-21.14 0-.44.46-.42 1.19.03 1.63.44.43 1.15.43 1.59 0 4.91-4.97 12.92-5.03 17.89-.12 4.97 4.91 5.03 12.92.12 17.89l-.12.12c-.46.44-.47 1.17-.03 1.63.44.46 1.17.47 1.63.03l.03-.03c5.83-5.85 5.83-15.31 0-21.15z"/>
</svg>
