<svg xmlns="http://www.w3.org/2000/svg" width="76" height="71" fill="none" viewBox="0 0 76 71">
    <path fill="#CDDDFC" d="M7.416 8l32.834 2.786s1.75.7 1.75 4.873v45.566s-37.026 1.743-35.978 0C7.07 59.483 7.416 8 7.416 8zM67 31H44v30h23V31z"/>
    <path fill="#19548A" stroke="#fff" d="M71.41 62.77h-.92V44.88c0-.6-.49-1.08-1.08-1.08-.6 0-1.08.49-1.08 1.08v17.89H45.34V33.32h22.1c.49 0 .88.4.89.88v5.57c0 .6.49 1.08 1.08 1.08.6 0 1.08-.49 1.08-1.08V34.2c0-1.69-1.37-3.05-3.05-3.05h-22.1V11.46c-.01-1.58-1.22-2.9-2.8-3.04V6.25c-.01-1.59-1.23-2.91-2.81-3.04l-28.06-2.2C9.99.88 8.52 2.14 8.39 3.82c-.01.08-.01.16-.01.24V5.8c-1.58.13-2.8 1.45-2.8 3.04v53.94h-.91c-1.99-.03-3.64 1.56-3.67 3.55-.03 1.99 1.56 3.64 3.55 3.67h66.86c1.99.03 3.64-1.56 3.67-3.55.03-1.99-1.56-3.64-3.55-3.67-.04-.01-.08-.01-.12-.01zM10.55 4.05c0-.49.4-.89.88-.89h.07l28.06 2.2c.46.04.81.42.82.88v2L10.55 5.9V4.05zM7.76 8.82c0-.49.4-.89.88-.89h.07l33.64 2.64c.46.04.81.42.82.88v51.31h-3.03V47.25c0-.99-.8-1.79-1.79-1.79H28.29c-.99 0-1.79.8-1.79 1.79v7.03c0 .6.49 1.08 1.08 1.08.59 0 1.08-.49 1.08-1.08v-6.65h9.31v15.13h-9.31v-3.42c0-.6-.49-1.08-1.08-1.08-.59 0-1.08.49-1.08 1.08v3.42H7.75V8.82h.01zm63.66 59H4.67c-.8.02-1.46-.61-1.48-1.41-.02-.8.61-1.46 1.41-1.48h66.82c.8-.02 1.46.61 1.48 1.41.02.8-.61 1.46-1.41 1.48h-.07z"/>
    <path fill="#19548A" stroke="#CDDDFC" d="M12.02 22.05h4.39c1.03 0 1.87-.84 1.87-1.87v-3.37c0-1.03-.84-1.87-1.87-1.87h-4.39c-1.03 0-1.87.84-1.87 1.87v3.37c.01 1.03.84 1.87 1.87 1.87zm.3-4.95h3.79v2.78h-3.79V17.1zM22.96 22.05h4.39c1.03 0 1.87-.84 1.87-1.87v-3.37c0-1.03-.84-1.87-1.87-1.87h-4.39c-1.03 0-1.87.84-1.87 1.87v3.37c0 1.03.84 1.87 1.87 1.87zm.3-4.95h3.79v2.78h-3.79V17.1zM33.89 22.05h4.39c1.03 0 1.87-.84 1.87-1.87v-3.37c0-1.03-.84-1.87-1.87-1.87h-4.39c-1.03 0-1.87.84-1.87 1.87v3.37c.01 1.03.84 1.87 1.87 1.87zm.3-4.95h3.79v2.78h-3.79V17.1zM12.02 31.79h4.39c1.03 0 1.87-.84 1.87-1.87v-3.37c0-1.03-.84-1.87-1.87-1.87h-4.39c-1.03 0-1.87.84-1.87 1.87v3.37c.01 1.03.84 1.87 1.87 1.87zm.3-4.95h3.79v2.78h-3.79v-2.78zM22.96 31.79h4.39c1.03 0 1.87-.84 1.87-1.87v-3.37c0-1.03-.84-1.87-1.87-1.87h-4.39c-1.03 0-1.87.84-1.87 1.87v3.37c0 1.03.84 1.87 1.87 1.87zm.3-4.95h3.79v2.78h-3.79v-2.78zM33.89 31.79h4.39c1.03 0 1.87-.84 1.87-1.87v-3.37c0-1.03-.84-1.87-1.87-1.87h-4.39c-1.03 0-1.87.84-1.87 1.87v3.37c.01 1.03.84 1.87 1.87 1.87zm.3-4.95h3.79v2.78h-3.79v-2.78zM12.02 41.53h4.39c1.03 0 1.87-.84 1.87-1.87v-3.37c0-1.03-.84-1.87-1.87-1.87h-4.39c-1.03 0-1.87.84-1.87 1.87v3.37c.01 1.04.84 1.87 1.87 1.87zm.3-4.94h3.79v2.78h-3.79v-2.78zM21.94 45.47h-9.71c-1.15 0-2.08.93-2.08 2.08v2.95c0 1.15.93 2.08 2.08 2.08h9.71c1.15 0 2.08-.93 2.08-2.08v-2.95c0-1.15-.93-2.08-2.08-2.08zm-.09 4.95h-9.53v-2.78h9.53v2.78zM22.96 41.53h4.39c1.03 0 1.87-.84 1.87-1.87v-3.37c0-1.03-.84-1.87-1.87-1.87h-4.39c-1.03 0-1.87.84-1.87 1.87v3.37c0 1.04.84 1.87 1.87 1.87zm.3-4.94h3.79v2.78h-3.79v-2.78zM33.89 41.53h4.39c1.03 0 1.87-.84 1.87-1.87v-3.37c0-1.03-.84-1.87-1.87-1.87h-4.39c-1.03 0-1.87.84-1.87 1.87v3.37c.01 1.04.84 1.87 1.87 1.87zm.3-4.94h3.79v2.78h-3.79v-2.78zM56.04 40.59c0-1.1-.89-1.99-1.99-1.99h-4.42c-1.1 0-1.99.89-1.99 1.99v3.51c0 1.1.89 2 1.99 2h4.42c1.1 0 1.99-.9 1.99-2v-3.51zm-2.17 3.34h-4.08v-3.16h4.08v3.16zM54.04 48.6h-4.42c-1.1 0-1.99.89-1.99 1.99v3.51c0 1.1.89 1.99 1.99 1.99h4.42c1.1 0 1.99-.89 1.99-1.99v-3.51c0-1.1-.89-1.99-1.99-1.99zm-.17 5.33h-4.08v-3.16h4.08v3.16zM66.12 40.59c0-1.1-.89-1.99-1.99-1.99h-4.42c-1.1 0-1.99.89-1.99 1.99v3.51c0 1.1.89 2 1.99 2h4.42c1.1 0 1.99-.9 1.99-2v-3.51zm-2.17 3.34h-4.08v-3.16h4.08v3.16zM64.12 48.6H59.7c-1.1 0-1.99.89-1.99 1.99v3.51c0 1.1.89 1.99 1.99 1.99h4.42c1.1 0 1.99-.89 1.99-1.99v-3.51c0-1.1-.89-1.99-1.99-1.99zm-.17 5.33h-4.08v-3.16h4.08v3.16z"/>
</svg>
